SplineFontDB: 3.0
FontName: MazonHebrew-Regular
FullName: Mazon Hebrew Regular
FamilyName: Mazon Hebrew
Weight: Regular
Copyright: Copyright (c) 2014 Ryan Dorsey\nLicensed under SIL Open Font License v1.1 (http://scripts.sil.org/OFL)\nCreated with FontForge 2.0 (http://fontforge.sf.net)
UComments: "2015-2-5: Created." 
Version: v0.4
ItalicAngle: 0
UnderlinePosition: -100
UnderlineWidth: 50
Ascent: 753
Descent: 247
LayerCount: 2
Layer: 0 0 "Back"  1
Layer: 1 0 "Fore"  0
XUID: [1021 734 1179239952 1081570]
OS2Version: 0
OS2_WeightWidthSlopeOnly: 0
OS2_UseTypoMetrics: 1
CreationTime: 1423149491
ModificationTime: 1423149491
OS2TypoAscent: 0
OS2TypoAOffset: 1
OS2TypoDescent: 0
OS2TypoDOffset: 1
OS2TypoLinegap: 0
OS2WinAscent: 0
OS2WinAOffset: 1
OS2WinDescent: 0
OS2WinDOffset: 1
HheadAscent: 0
HheadAOffset: 1
HheadDescent: 0
HheadDOffset: 1
OS2Vendor: 'PfEd'
Lookup: 6 1 0 "caltAltAyin"  {"caltAltAyin contextual 0"  "caltAltAyin contextual 1"  } ['calt' ('hebr' <'dflt' > 'DFLT' <'dflt' > ) ]
Lookup: 1 1 0 "Single Substitution lookup 1"  {"Single Substitution lookup 1 subtable"  } []
Lookup: 6 1 0 "caltFurtivePatah"  {"caltFurtivePatah contextual 0"  "caltFurtivePatah contextual 1"  } ['calt' ('hebr' <'dflt' > 'DFLT' <'dflt' > ) ]
Lookup: 1 1 0 "Single Substitution lookup 3"  {"Single Substitution lookup 3 subtable"  } []
Lookup: 1 1 0 "Single Substitution lookup 4"  {"Single Substitution lookup 4 subtable"  } []
Lookup: 262 1 0 "mkmkDageshKafSofit"  {"mkmkDageshKafSofit subtable"  } ['mkmk' ('hebr' <'dflt' > 'DFLT' <'dflt' > ) ]
Lookup: 260 1 0 "markRafe"  {"markRafe subtable"  } ['mark' ('hebr' <'dflt' > 'DFLT' <'dflt' > ) ]
Lookup: 260 1 0 "markDagesh"  {"markDagesh subtable"  } ['mark' ('hebr' <'dflt' > 'DFLT' <'dflt' > ) ]
Lookup: 260 1 0 "markHighNiqqud"  {"markHighNiqqud subtable"  } ['mark' ('hebr' <'dflt' > 'DFLT' <'dflt' > ) ]
Lookup: 260 1 0 "markLowWideNiqqud"  {"markLowWideNiqqud subtable"  } ['mark' ('hebr' <'dflt' > 'DFLT' <'dflt' > ) ]

StartChar: afii57802
Encoding: 1459 1459 0
Width: 2
VWidth: 0
GlyphClass: 4
Flags: HW
AnchorPoint: "LowWideNiqqud" 0 0 mark 0
LayerCount: 2
Fore
SplineSet
-66.7979 -135.07 m 0
 -67.2119 -131.976 -69.8555 -128.641 -74.1055 -128.641 c 0
 -92.0059 -128.641 -103.433 -129.585 -117.671 -129.125 c 0
 -124.666 -128.899 -125.953 -126.017 -125.964 -118.784 c 0
 -125.977 -110.949 -125.988 -103.115 -126 -95.2803 c 0
 -126.015 -85.9824 -121.84 -80.1514 -111.196 -80.418 c 0
 -97.1348 -80.7705 -68.0322 -81.1016 -49.6982 -81.1016 c 0
 -25.0215 -81.1016 9.0752 -79.873 24.6064 -80.418 c 0
 35.9395 -80.8154 35.7412 -83.4941 35.876 -90.4199 c 0
 36.0762 -100.732 36.2773 -111.044 36.4785 -121.356 c 0
 36.6455 -129.938 29.5195 -129.289 19.7461 -129.289 c 0
 11.8975 -129.289 0.0429688 -128.384 -14.2344 -128.311 c 0
 -19.7148 -128.282 -23.6641 -131.262 -23.6641 -136.834 c 0
 -23.6641 -162.719 -22.0625 -197.197 -19.3213 -219.927 c 0
 -18.7451 -224.712 -21.7715 -227.064 -29.4053 -228.006 c 2
 -62.834 -232.128 l 2
 -67.9365 -232.757 -72.2158 -230.364 -71.1035 -219.176 c 0
 -69.2275 -200.31 -63.9531 -156.346 -66.7979 -135.07 c 0
98.0244 -139.639 m 0
 83.6289 -139.063 68.7129 -130.128 68.7129 -107.168 c 0
 68.7129 -79.8438 85.1016 -71.3975 99.6221 -71.3975 c 0
 118.44 -71.3975 127.834 -83.0703 127.834 -107.921 c 0
 127.834 -128.311 116.503 -140.377 98.0244 -139.639 c 0
98.0244 -168.504 m 0
 116.503 -167.766 127.834 -179.832 127.834 -200.222 c 0
 127.834 -225.072 118.44 -236.745 99.6221 -236.745 c 0
 85.1016 -236.745 68.7129 -228.299 68.7129 -200.975 c 0
 68.7129 -178.015 83.6289 -169.079 98.0244 -168.504 c 0
EndSplineSet
EndChar

StartChar: afii57798
Encoding: 1463 1463 1
Width: 0
VWidth: 0
GlyphClass: 4
Flags: HW
AnchorPoint: "LowNarrowNiqqud" 0 0 mark 0
LayerCount: 2
Fore
SplineSet
3.16895 -128.28 m 0
 -18.8477 -128.274 -51.5 -129.81 -72.6709 -129.125 c 0
 -79.666 -128.899 -80.9531 -126.017 -80.9639 -118.784 c 2
 -81 -95.2803 l 2
 -81.0146 -85.9824 -76.8398 -80.1514 -66.1963 -80.418 c 0
 -52.1348 -80.7705 -23.0322 -81.1025 -4.69824 -81.1025 c 0
 19.9785 -81.1025 54.0752 -79.873 69.6064 -80.418 c 0
 80.9395 -80.8154 80.7412 -83.4941 80.876 -90.4199 c 2
 80.876 -90.4199 81.2773 -111.044 81.4785 -121.356 c 0
 81.6455 -129.938 74.5137 -129.635 64.7461 -129.289 c 0
 43.1045 -128.521 21.7539 -128.285 3.16895 -128.28 c 0
EndSplineSet
EndChar

StartChar: afii57803
Encoding: 1474 1474 2
Width: 0
VWidth: 0
GlyphClass: 4
Flags: HW
AnchorPoint: "HighNiqqud" 0 0 mark 0
LayerCount: 2
Fore
SplineSet
153.312 592.827 m 0
 138.916 593.402 124 602.338 124 625.298 c 0
 124 652.622 140.389 661.068 154.908 661.068 c 0
 173.728 661.068 183.12 649.396 183.12 624.545 c 0
 183.12 604.155 171.79 592.089 153.312 592.827 c 0
EndSplineSet
EndChar

StartChar: uni05BA
Encoding: 1466 1466 3
Width: 0
VWidth: 0
GlyphClass: 4
Flags: HW
AnchorPoint: "HighNiqqud" 0 0 mark 0
LayerCount: 2
Fore
SplineSet
155.312 594.827 m 0
 140.916 595.402 126 604.338 126 627.298 c 0
 126 654.622 142.389 663.068 156.908 663.068 c 0
 175.728 663.068 185.12 651.396 185.12 626.545 c 0
 185.12 606.155 173.79 594.089 155.312 594.827 c 0
EndSplineSet
EndChar

StartChar: afii57797
Encoding: 1464 1464 4
Width: 0
VWidth: 0
GlyphClass: 4
Flags: HW
AnchorPoint: "LowNarrowNiqqud" 0 0 mark 0
AnchorPoint: "DageshKafSofit" 0 0 mark 0
LayerCount: 2
Fore
SplineSet
-21.7979 -135.07 m 0
 -22.2119 -131.976 -24.8555 -128.641 -29.1055 -128.641 c 0
 -47.0059 -128.641 -58.4326 -129.585 -72.6709 -129.125 c 0
 -79.666 -128.898 -80.9531 -126.016 -80.9639 -118.784 c 0
 -80.9766 -110.949 -80.9883 -103.114 -81 -95.2803 c 0
 -81.0146 -85.9824 -76.8398 -80.1514 -66.1963 -80.418 c 0
 -52.1348 -80.7695 -23.0322 -81.1016 -4.69824 -81.1016 c 0
 19.9785 -81.1016 54.0752 -79.873 69.6064 -80.418 c 0
 80.9395 -80.8154 80.7412 -83.4932 80.876 -90.4199 c 0
 81.0762 -100.731 81.2773 -111.044 81.4785 -121.355 c 0
 81.6455 -129.938 74.5195 -129.288 64.7461 -129.288 c 0
 56.8975 -129.288 45.043 -128.384 30.7656 -128.31 c 0
 25.2852 -128.281 21.3359 -131.261 21.3359 -136.834 c 0
 21.3359 -162.719 22.9375 -197.197 25.6787 -219.926 c 0
 26.2549 -224.712 23.2285 -227.064 15.5947 -228.006 c 2
 -17.834 -232.127 l 2
 -22.9365 -232.757 -27.2158 -230.364 -26.1035 -219.176 c 0
 -24.2275 -200.31 -18.9531 -156.346 -21.7979 -135.07 c 0
EndSplineSet
EndChar

StartChar: afii57793
Encoding: 1460 1460 5
Width: 1
VWidth: 0
GlyphClass: 4
Flags: HW
AnchorPoint: "LowNarrowNiqqud" 0 0 mark 0
LayerCount: 2
Fore
SplineSet
0.311523 -140.173 m 0
 -14.084 -139.598 -29 -130.662 -29 -107.703 c 0
 -29 -80.3779 -12.6113 -71.9316 1.9082 -71.9316 c 0
 20.7275 -71.9316 30.1201 -83.6045 30.1201 -108.455 c 0
 30.1201 -128.845 18.79 -140.911 0.311523 -140.173 c 0
EndSplineSet
EndChar

StartChar: afii57796
Encoding: 1467 1467 6
Width: 1
VWidth: 0
GlyphClass: 4
Flags: HW
AnchorPoint: "LowNarrowNiqqud" 0 0 mark 0
LayerCount: 2
Fore
SplineSet
-75.6885 -140.583 m 0
 -90.084 -140.008 -105 -131.072 -105 -108.112 c 0
 -105 -80.7881 -88.6113 -72.3418 -74.0918 -72.3418 c 0
 -55.2725 -72.3418 -45.8799 -84.0146 -45.8799 -108.865 c 0
 -45.8799 -129.255 -57.21 -141.32 -75.6885 -140.583 c 0
76.8086 -187.448 m 0
 91.2051 -188.023 106.12 -196.959 106.12 -219.918 c 0
 106.12 -247.243 89.7314 -255.689 75.2119 -255.689 c 0
 56.3936 -255.689 47 -244.017 47 -219.166 c 0
 47 -198.776 58.3311 -186.71 76.8086 -187.448 c 0
0.311523 -129.911 m 0
 18.79 -129.173 30.1201 -141.239 30.1201 -161.629 c 0
 30.1201 -186.479 20.7275 -198.151 1.9082 -198.151 c 0
 -12.6113 -198.151 -29 -189.706 -29 -162.381 c 0
 -29 -139.422 -14.084 -130.486 0.311523 -129.911 c 0
EndSplineSet
EndChar

StartChar: afii57800
Encoding: 1458 1458 7
Width: 2
VWidth: 0
GlyphClass: 4
Flags: HW
AnchorPoint: "LowWideNiqqud" 0 0 mark 0
LayerCount: 2
Fore
SplineSet
-41.8311 -128.28 m 0
 -63.8477 -128.275 -96.5 -129.81 -117.671 -129.125 c 0
 -124.666 -128.899 -125.953 -126.017 -125.964 -118.784 c 0
 -125.977 -110.949 -125.988 -103.115 -126 -95.2803 c 0
 -126.015 -85.9824 -121.84 -80.1514 -111.196 -80.418 c 0
 -97.1348 -80.7705 -68.0322 -81.1025 -49.6982 -81.1025 c 0
 -25.0215 -81.1025 9.0752 -79.873 24.6064 -80.418 c 0
 35.9395 -80.8154 35.7412 -83.4941 35.876 -90.4199 c 0
 36.0762 -100.732 36.2773 -111.044 36.4785 -121.356 c 0
 36.6455 -129.938 29.5127 -129.66 19.7461 -129.289 c 0
 -0.0693359 -128.535 -26.3438 -128.284 -41.8311 -128.28 c 0
97.8506 -140.979 m 0
 83.4541 -140.403 68.5381 -131.468 68.5381 -108.508 c 0
 68.5381 -81.1836 84.9277 -72.7373 99.4473 -72.7373 c 0
 118.266 -72.7373 127.659 -84.4102 127.659 -109.261 c 0
 127.659 -129.65 116.328 -141.717 97.8506 -140.979 c 0
97.8506 -172.844 m 0
 116.328 -172.106 127.659 -184.172 127.659 -204.562 c 0
 127.659 -229.412 118.266 -241.085 99.4473 -241.085 c 0
 84.9277 -241.085 68.5381 -232.64 68.5381 -205.314 c 0
 68.5381 -182.354 83.4541 -173.419 97.8506 -172.844 c 0
EndSplineSet
EndChar

StartChar: afii57794
Encoding: 1461 1461 8
Width: 2
VWidth: 0
GlyphClass: 4
Flags: HW
AnchorPoint: "LowNarrowNiqqud" 0 0 mark 0
LayerCount: 2
Fore
SplineSet
-53.6885 -140.173 m 0
 -68.084 -139.598 -83 -130.662 -83 -107.703 c 0
 -83 -80.3779 -66.6113 -71.9326 -52.0918 -71.9326 c 0
 -33.2725 -71.9326 -23.8799 -83.6045 -23.8799 -108.455 c 0
 -23.8799 -128.845 -35.21 -140.911 -53.6885 -140.173 c 0
55.3799 -140.104 m 0
 36.9023 -140.843 25.5713 -128.776 25.5713 -108.388 c 0
 25.5713 -83.5361 34.9648 -71.8643 53.7832 -71.8643 c 0
 68.3027 -71.8643 84.6924 -80.3096 84.6924 -107.635 c 0
 84.6924 -130.595 69.7764 -139.529 55.3799 -140.104 c 0
EndSplineSet
EndChar

StartChar: afii57804
Encoding: 1473 1473 9
Width: 0
VWidth: 0
GlyphClass: 4
Flags: HW
AnchorPoint: "HighNiqqud" 0 0 mark 0
LayerCount: 2
Fore
SplineSet
441.312 592.827 m 0
 426.916 593.402 412 602.338 412 625.298 c 0
 412 652.622 428.389 661.068 442.908 661.068 c 0
 461.728 661.068 471.12 649.396 471.12 624.545 c 0
 471.12 604.155 459.79 592.089 441.312 592.827 c 0
EndSplineSet
EndChar

StartChar: afii57801
Encoding: 1457 1457 10
Width: 1
VWidth: 0
GlyphClass: 4
Flags: HW
AnchorPoint: "LowWideNiqqud" 0 0 mark 0
LayerCount: 2
Fore
SplineSet
-108.688 -140.173 m 0
 -123.084 -139.598 -138 -130.662 -138 -107.702 c 0
 -138 -80.3779 -121.611 -71.9316 -107.092 -71.9316 c 0
 -88.2725 -71.9316 -78.8799 -83.6045 -78.8799 -108.455 c 0
 -78.8799 -128.845 -90.21 -140.911 -108.688 -140.173 c 0
-56.8311 -166.038 m 0
 -38.3525 -165.301 -27.0225 -177.366 -27.0225 -197.756 c 0
 -27.0225 -222.606 -36.415 -234.279 -55.2344 -234.279 c 0
 -69.7539 -234.279 -86.1426 -225.834 -86.1426 -198.509 c 0
 -86.1426 -175.549 -71.2266 -166.613 -56.8311 -166.038 c 0
0.379883 -140.104 m 0
 -18.0977 -140.843 -29.4287 -128.776 -29.4287 -108.387 c 0
 -29.4287 -83.5361 -20.0352 -71.8633 -1.2168 -71.8633 c 0
 13.3027 -71.8633 29.6924 -80.3096 29.6924 -107.634 c 0
 29.6924 -130.594 14.7764 -139.529 0.379883 -140.104 c 0
108.846 -139.504 m 0
 94.4492 -138.929 79.5332 -129.993 79.5332 -107.033 c 0
 79.5332 -79.709 95.9229 -71.2627 110.442 -71.2627 c 0
 129.261 -71.2627 138.654 -82.9355 138.654 -107.786 c 0
 138.654 -128.176 127.323 -140.242 108.846 -139.504 c 0
104.846 -168.369 m 0
 123.323 -167.631 134.654 -179.697 134.654 -200.087 c 0
 134.654 -224.938 125.261 -236.61 106.442 -236.61 c 0
 91.9229 -236.61 75.5332 -228.164 75.5332 -200.84 c 0
 75.5332 -177.88 90.4492 -168.944 104.846 -168.369 c 0
EndSplineSet
EndChar

StartChar: afii57839
Encoding: 1469 1469 11
Width: 1
VWidth: 0
GlyphClass: 4
Flags: HW
AnchorPoint: "LowNarrowNiqqud" 0 0 mark 0
LayerCount: 2
Fore
SplineSet
-18.0703 -168.441 m 0
 -18.0654 -146.409 -19.2852 -107.734 -18.7412 -86.5498 c 0
 -18.5615 -79.5498 -16.2705 -78.2617 -10.5225 -78.25 c 2
 8.15723 -78.2139 l 2
 15.5459 -78.1992 20.1807 -82.377 19.9688 -93.0283 c 0
 19.6885 -107.1 19.4248 -142.223 19.4248 -160.569 c 0
 19.4248 -185.263 20.4014 -225.382 19.9688 -240.925 c 0
 19.6523 -252.265 17.5244 -252.066 12.0195 -252.201 c 2
 -12.5664 -252.804 l 2
 -19.3877 -252.972 -19.209 -245.831 -18.8711 -236.061 c 0
 -18.3291 -212.891 -18.0742 -189.611 -18.0703 -168.441 c 0
EndSplineSet
EndChar

StartChar: afii57807
Encoding: 1468 1468 12
Width: 1
VWidth: 0
GlyphClass: 4
Flags: HW
AnchorPoint: "Dagesh" 0 0 mark 0
AnchorPoint: "DageshKafSofit" 0 0 basemark 0
LayerCount: 2
Fore
SplineSet
0.311523 248.827 m 0
 -14.084 249.402 -29 258.338 -29 281.297 c 0
 -29 308.622 -12.6113 317.068 1.9082 317.068 c 0
 20.7275 317.068 30.1201 305.396 30.1201 280.545 c 0
 30.1201 260.155 18.79 248.089 0.311523 248.827 c 0
EndSplineSet
EndChar

StartChar: uni05C7
Encoding: 1479 1479 13
Width: 0
VWidth: 0
GlyphClass: 4
Flags: HW
AnchorPoint: "LowNarrowNiqqud" 0 0 mark 0
LayerCount: 2
Fore
SplineSet
-21.7979 -135.633 m 0
 -22.0303 -132.519 -24.8555 -129.202 -29.1055 -129.202 c 0
 -47.0059 -129.202 -58.4326 -130.147 -72.6709 -129.687 c 0
 -79.666 -129.461 -80.9531 -126.578 -80.9639 -119.346 c 0
 -80.9766 -111.511 -80.9883 -103.677 -81 -95.8418 c 0
 -81.0146 -86.5439 -76.8398 -80.7139 -66.1963 -80.9795 c 0
 -52.1348 -81.332 -23.0322 -81.6641 -4.69824 -81.6641 c 0
 19.9785 -81.6641 54.0752 -80.4346 69.6064 -80.9795 c 0
 80.9395 -81.3779 80.7412 -84.0557 80.876 -90.9814 c 0
 81.0762 -101.294 81.2773 -111.605 81.4785 -121.918 c 0
 81.6455 -130.5 74.5195 -129.851 64.7461 -129.851 c 0
 56.8975 -129.851 45.043 -128.945 30.7656 -128.872 c 0
 25.2852 -128.844 21.3359 -131.823 21.3359 -137.396 c 0
 21.3359 -163.281 24.9375 -221.759 27.6787 -244.488 c 0
 28.2549 -249.274 25.2402 -251.726 17.5947 -252.568 c 2
 -19.834 -256.689 l 2
 -24.9443 -257.252 -29.9072 -254.836 -28.1035 -243.738 c 0
 -22.6562 -210.229 -19.3096 -169.051 -21.7979 -135.633 c 0
EndSplineSet
EndChar

StartChar: afii57799
Encoding: 1456 1456 14
Width: 1
VWidth: 0
GlyphClass: 4
Flags: HW
AnchorPoint: "LowNarrowNiqqud" 0 0 mark 0
LayerCount: 2
Fore
SplineSet
0.311523 -140.173 m 0
 -14.084 -139.598 -29 -130.662 -29 -107.702 c 0
 -29 -80.3779 -12.6113 -71.9316 1.9082 -71.9316 c 0
 20.7275 -71.9316 30.1201 -83.6045 30.1201 -108.455 c 0
 30.1201 -128.845 18.79 -140.911 0.311523 -140.173 c 0
0.311523 -169.038 m 0
 18.79 -168.3 30.1201 -180.366 30.1201 -200.756 c 0
 30.1201 -225.606 20.7275 -237.279 1.9082 -237.279 c 0
 -12.6113 -237.279 -29 -228.833 -29 -201.509 c 0
 -29 -178.549 -14.084 -169.613 0.311523 -169.038 c 0
EndSplineSet
EndChar

StartChar: afii57841
Encoding: 1471 1471 15
Width: 0
VWidth: 0
GlyphClass: 4
Flags: HW
AnchorPoint: "Rafe" 0 0 mark 0
LayerCount: 2
Fore
SplineSet
1.16992 659.435 m 0
 -55.1934 659.435 -103.933 658.59 -156.67 658.59 c 0
 -163.669 658.59 -164.952 661.698 -164.964 668.931 c 2
 -165 692.435 l 2
 -165.015 701.732 -160.84 707.563 -150.196 707.297 c 0
 -92.6875 705.856 -49.2754 706.613 -6.69727 706.613 c 0
 61.1631 706.613 110.502 708.809 153.606 707.297 c 0
 164.939 706.898 164.741 704.221 164.876 697.295 c 2
 165.479 666.358 l 2
 165.646 657.776 158.514 658.08 148.746 658.426 c 0
 103.873 660.016 50.0586 659.435 1.16992 659.435 c 0
EndSplineSet
EndChar

StartChar: afii57795
Encoding: 1462 1462 16
Width: 2
VWidth: 0
GlyphClass: 4
Flags: HW
AnchorPoint: "LowNarrowNiqqud" 0 0 mark 0
LayerCount: 2
Fore
SplineSet
-53.6885 -140.172 m 0
 -68.084 -139.598 -83 -130.662 -83 -107.702 c 0
 -83 -80.377 -66.6113 -71.9316 -52.0918 -71.9316 c 0
 -33.2725 -71.9316 -23.8799 -83.6035 -23.8799 -108.455 c 0
 -23.8799 -128.845 -35.21 -140.91 -53.6885 -140.172 c 0
0.168945 -166.038 m 0
 18.6475 -165.3 29.9775 -177.366 29.9775 -197.756 c 0
 29.9775 -222.606 20.585 -234.279 1.76562 -234.279 c 0
 -12.7539 -234.279 -29.1426 -225.833 -29.1426 -198.509 c 0
 -29.1426 -175.549 -14.2266 -166.613 0.168945 -166.038 c 0
55.3799 -140.104 m 0
 36.9023 -140.842 25.5713 -128.776 25.5713 -108.387 c 0
 25.5713 -83.5361 34.9648 -71.8633 53.7832 -71.8633 c 0
 68.3027 -71.8633 84.6924 -80.3086 84.6924 -107.634 c 0
 84.6924 -130.594 69.7764 -139.529 55.3799 -140.104 c 0
EndSplineSet
EndChar

StartChar: afii57806
Encoding: 1465 1465 17
Width: 0
VWidth: 0
GlyphClass: 4
Flags: HW
AnchorPoint: "HighNiqqud" 0 0 mark 0
LayerCount: 2
Fore
SplineSet
-37.6885 642.827 m 0
 -52.084 643.402 -67 652.338 -67 675.298 c 0
 -67 702.622 -50.6113 711.068 -36.0918 711.068 c 0
 -17.2725 711.068 -7.87988 699.396 -7.87988 674.545 c 0
 -7.87988 654.155 -19.21 642.089 -37.6885 642.827 c 0
EndSplineSet
EndChar

StartChar: parenleft
Encoding: 40 40 18
Width: 310
VWidth: 0
GlyphClass: 2
Flags: HW
LayerCount: 2
Fore
SplineSet
208.744 753.216 m 0
 220.833 769.891 233.643 768.457 235.658 755.635 c 2
 240.337 725.882 l 2
 241.372 719.302 241.494 713.848 238.826 709.188 c 0
 164.3 578.971 139.691 464.953 139.691 306.662 c 0
 139.691 142.352 170.358 18.877 246.594 -109.978 c 0
 249.758 -115.326 251.238 -121.07 249.866 -129.726 c 2
 245.125 -159.635 l 2
 243.185 -171.869 233.968 -172.604 222.904 -158.19 c 0
 120.69 -25.0332 60 125.95 60 306.662 c 0
 60 478.849 114.779 623.606 208.744 753.216 c 0
EndSplineSet
EndChar

StartChar: backslash
Encoding: 92 92 19
Width: 519
VWidth: 0
GlyphClass: 2
Flags: HW
LayerCount: 2
Fore
SplineSet
134.734 698.277 m 0
 169.975 593.791 218.239 488.182 260.866 395.278 c 0
 309.787 288.657 375.477 151.732 453.643 7.14355 c 0
 466.341 -16.3447 454.469 -17.752 442.315 -17.752 c 0
 421.08 -17.752 410.154 -16.749 392.85 -12.3848 c 0
 374.851 -7.8457 374.118 -3.2959 366.573 17.709 c 0
 347.938 69.5869 293.088 189.591 268.97 242.536 c 0
 198.976 396.19 124.319 549.982 62.9004 662.135 c 0
 57.4561 672.075 60.1631 680.404 66.9805 684.881 c 0
 79.7324 693.254 103.729 703.842 121.148 708.329 c 0
 127.079 709.856 132.41 705.167 134.734 698.277 c 0
EndSplineSet
EndChar

StartChar: quotedblleft
Encoding: 8220 8220 20
Width: 395
VWidth: 0
GlyphClass: 2
Flags: HW
LayerCount: 2
Fore
SplineSet
173.138 553.164 m 0
 183.244 526.14 172.665 484.827 139.302 472.35 c 0
 115.592 463.483 83.375 469.506 67.1465 512.899 c 0
 49.0283 563.435 68.2646 622.058 92.4531 658.108 c 0
 104.126 675.092 125.249 698.125 143.729 711.199 c 0
 149.852 715.53 155.545 715.516 162.319 711.761 c 0
 168.479 708.348 175.407 700.755 178.055 694.81 c 0
 180.965 688.275 180.36 683.416 175.77 679.689 c 0
 155.657 663.364 143.27 646.264 141.818 629.001 c 0
 140.366 611.722 144.312 596.117 152.361 584.536 c 0
 157.212 577.559 170.086 561.324 173.138 553.164 c 0
331.107 553.164 m 0
 341.214 526.14 330.635 484.827 297.271 472.35 c 0
 273.562 463.483 241.345 469.506 225.116 512.899 c 0
 206.997 563.435 226.234 622.058 250.423 658.108 c 0
 262.096 675.092 280.188 694.364 298.669 707.438 c 0
 304.791 711.77 310.484 711.754 317.259 708 c 0
 323.418 704.587 330.347 696.994 332.994 691.049 c 0
 335.903 684.514 335.3 679.655 330.709 675.929 c 0
 310.597 659.604 301.239 646.264 299.788 629.001 c 0
 298.336 611.722 302.281 596.117 310.331 584.536 c 0
 315.182 577.559 328.056 561.325 331.107 553.164 c 0
EndSplineSet
EndChar

StartChar: grave
Encoding: 96 96 21
Width: 302
VWidth: 0
GlyphClass: 2
Flags: HW
LayerCount: 2
Fore
SplineSet
87.0654 697.055 m 0
 117.002 718.521 133.735 720.297 164.093 673.054 c 0
 225.671 577.22 257.116 501.982 235.419 486.79 c 0
 218.041 474.622 125.733 551.947 79.6416 612.07 c 0
 43.8428 658.769 63.499 680.154 87.0654 697.055 c 0
EndSplineSet
EndChar

StartChar: fraction
Encoding: 8260 8260 22
Width: 683
VWidth: 0
GlyphClass: 2
Flags: HW
LayerCount: 2
Fore
SplineSet
556.669 612.746 m 0
 561.852 620.522 566.114 622.416 572.394 618.94 c 0
 587.927 610.341 608.499 593.663 618.649 582.275 c 0
 624.076 576.188 624.536 567.441 616.706 559.248 c 0
 528.36 466.807 421.594 343.7 314.228 213.388 c 0
 277.231 168.485 188.052 60.6357 156.63 15.3457 c 0
 143.906 -2.99219 142.013 -4.28809 123.461 -4.92578 c 0
 105.616 -5.53906 91.4277 -4.55566 74.291 -1.31152 c 0
 62.3496 0.950195 51.4482 8.26465 69.791 27.668 c 0
 182.706 147.108 286.733 268.499 361.574 358.832 c 0
 426.788 437.543 495.52 520.986 556.669 612.746 c 0
EndSplineSet
EndChar

StartChar: emdash
Encoding: 8212 8212 23
Width: 745
VWidth: 0
GlyphClass: 2
Flags: HW
LayerCount: 2
Fore
SplineSet
410.965 312.312 m 0
 349.458 312.312 161.947 311.489 71.3691 309.049 c 0
 62.1455 308.8 58.6924 313.738 60.4365 324.174 c 0
 62.6426 337.377 64.8496 350.582 67.0557 363.786 c 0
 69.2979 377.201 72.5488 386.152 86.5713 385.523 c 0
 147.056 382.808 317.75 382.523 391.57 382.523 c 0
 449.168 382.523 604.626 387.105 669.64 385.523 c 0
 684.586 385.159 686.13 380.896 684.495 370.895 c 2
 676.606 322.65 l 2
 674.581 310.259 667.43 310.614 654.55 311.049 c 0
 585.404 313.38 474.197 312.311 410.965 312.312 c 0
EndSplineSet
EndChar

StartChar: exclam
Encoding: 33 33 24
Width: 239
VWidth: 0
GlyphClass: 2
Flags: HW
LayerCount: 2
Fore
SplineSet
119 127.453 m 0
 156.193 128.939 179 104.652 179 63.6113 c 0
 179 13.5908 160.093 -9.9043 122.215 -9.9043 c 0
 92.9893 -9.9043 60 7.0957 60 62.0957 c 0
 60 108.311 90.0234 126.296 119 127.453 c 0
152.404 260.838 m 2
 151.591 241.633 126.392 233.15 106.299 230.078 c 0
 101.425 229.333 93.5596 231.348 92.2158 244.724 c 0
 81.1484 354.886 74.6836 481.32 70.9248 617.676 c 0
 70.2676 641.506 67.8379 680.319 67.6357 684.852 c 0
 67.2236 694.078 69.3535 702.11 75.8027 704.624 c 0
 95.7734 712.408 144.435 713.711 161.353 710 c 0
 167.172 708.724 170.202 700.256 170.077 696.157 c 0
 169.008 661.073 168.683 645.398 167.041 606.63 c 2
 152.404 260.838 l 2
EndSplineSet
EndChar

StartChar: uni05C6
Encoding: 1478 1478 25
Width: 405
VWidth: 0
GlyphClass: 2
Flags: HW
LayerCount: 2
Fore
SplineSet
159.05 92.4307 m 0
 207.365 95.6064 255.68 98.7822 303.994 101.958 c 0
 327.442 103.499 332.13 91.2461 333.002 85.6758 c 2
 345.015 9.00195 l 2
 346.396 0.182617 342.691 -7.0332 333.131 -6.47656 c 0
 281.112 -3.44922 246.229 -0.479492 199.015 0.65332 c 0
 154.561 1.71973 88.3398 0.797852 79.8838 0.472656 c 0
 71.9883 0.169922 66.7363 4.01172 67.8848 16.918 c 0
 68.6162 25.1289 73.8145 93.7754 73.8301 117.613 c 2
 73.9551 308.697 l 2
 74.0029 380.828 62.5674 468.464 60.376 480.926 c 0
 57.8359 495.367 68.6963 508.502 77.0703 515.018 c 0
 135.945 560.826 165.25 580.417 220.481 604.059 c 0
 230.78 608.467 241.688 605.389 249.046 591.238 c 2
 274.602 542.081 l 2
 279.161 533.312 277.284 521.146 268.649 515.929 c 2
 191.044 469.037 l 2
 162.014 451.496 144.385 418.163 142.754 383.554 c 0
 140.512 335.968 138.601 317.466 138.712 268.114 c 2
 139.003 139.183 l 2
 139.083 103.704 144.267 91.459 159.05 92.4307 c 0
EndSplineSet
EndChar

StartChar: quoteleft
Encoding: 8216 8216 26
Width: 240
VWidth: 0
GlyphClass: 2
Flags: HW
LayerCount: 2
Fore
SplineSet
173.138 553.164 m 0
 183.244 526.14 172.665 484.827 139.302 472.35 c 0
 115.592 463.483 83.375 469.506 67.1465 512.899 c 0
 49.0283 563.435 68.2646 622.058 92.4531 658.108 c 0
 104.126 675.092 125.249 698.125 143.729 711.199 c 0
 149.852 715.53 155.545 715.516 162.319 711.761 c 0
 168.479 708.348 175.407 700.755 178.055 694.81 c 0
 180.965 688.275 180.36 683.416 175.77 679.689 c 0
 155.657 663.364 143.27 646.264 141.818 629.001 c 0
 140.366 611.722 144.312 596.117 152.361 584.536 c 0
 157.212 577.559 170.086 561.324 173.138 553.164 c 0
EndSplineSet
EndChar

StartChar: braceleft
Encoding: 123 123 27
Width: 434
VWidth: 0
GlyphClass: 2
Flags: HW
LayerCount: 2
Fore
SplineSet
216.064 307.928 m 2
 228.501 302.002 228.593 297.136 228.593 283.355 c 0
 228.593 151.52 238.542 44.3291 260.35 -68.5918 c 0
 262.314 -78.7656 267.699 -83.3105 279.063 -87.0156 c 0
 302.497 -94.6553 329.283 -98.0156 360.778 -98.0156 c 0
 366.683 -98.0156 368.383 -100.735 369.35 -106.877 c 0
 371.016 -117.473 372.683 -128.067 374.35 -138.663 c 0
 375.258 -144.438 370.997 -147.633 365.492 -148.016 c 0
 329.205 -150.541 277.398 -148.723 239.35 -141.016 c 0
 191.353 -131.294 190.383 -124.725 184.35 -84.0156 c 0
 166.896 33.7383 160.119 131.803 160.119 248.707 c 0
 160.119 258.251 153.86 267.177 143.311 272.701 c 0
 120.564 284.614 103.662 292.77 74.7783 302.584 c 0
 65.2402 305.825 58.9883 312.4 60.1357 321.516 c 2
 65.168 361.496 l 2
 66.1396 369.218 69.8965 377.161 79.7793 380.474 c 0
 108.099 389.968 124.793 397.836 147.163 407.603 c 0
 154.04 410.605 158.861 419.965 158.861 431.207 c 0
 158.861 530.31 164.275 595 184.35 682.016 c 0
 192.613 717.838 194.805 728.123 239.35 737.016 c 0
 281.328 745.396 327.445 746.538 366.483 742.016 c 0
 373.862 741.16 375.031 733.418 373.777 726.265 c 0
 372.196 717.241 370.615 708.218 369.033 699.195 c 0
 368.287 694.937 365.606 692.991 359.18 693.267 c 0
 326.353 694.677 306.334 693.425 280.635 687.016 c 0
 269.878 684.333 263.917 678.097 260.35 664.783 c 0
 236.535 575.909 228.473 507.571 228.473 399.073 c 0
 228.473 381.012 228.444 378.279 216.13 372.59 c 2
 177.022 354.522 l 2
 159.839 346.583 159.148 335.045 177.333 326.381 c 2
 216.064 307.928 l 2
EndSplineSet
EndChar

StartChar: afii57645
Encoding: 1470 1470 28
Width: 436
VWidth: 0
GlyphClass: 2
Flags: HW
LayerCount: 2
Fore
SplineSet
224.611 480.263 m 0
 165.126 480.263 115.985 475.4 71.3691 477 c 0
 62.1475 477.331 58.6924 481.689 60.4365 492.125 c 0
 62.6426 505.329 69.3545 555.363 71.5605 568.567 c 0
 73.8027 581.982 77.0449 590.694 91.0762 590.305 c 0
 116.086 589.609 149.034 587.305 209.722 587.305 c 0
 267.319 587.305 329.723 591.495 360.317 590.305 c 0
 375.257 589.723 376.634 585.704 375.173 575.676 c 2
 362.779 490.603 l 2
 360.97 478.178 353.608 478.85 340.723 479 c 0
 314.004 479.311 257.54 480.263 224.611 480.263 c 0
EndSplineSet
EndChar

StartChar: plus
Encoding: 43 43 29
Width: 427
VWidth: 0
GlyphClass: 2
Flags: HW
LayerCount: 2
Fore
SplineSet
266.754 312.311 m 0
 255.693 312.306 249.914 310.165 249.914 300.292 c 0
 249.914 275.98 259.7 223.023 259.7 196.857 c 0
 259.7 187.423 257.005 184.559 247.912 184.543 c 2
 191.841 184.444 l 2
 185.46 184.433 180.612 190.525 181.014 197.216 c 0
 182.549 222.825 186.04 268.409 185.49 300.073 c 0
 185.345 308.459 181.098 311.996 173.135 311.996 c 0
 148.681 311.996 103.38 309.911 71.3691 309.049 c 0
 62.1455 308.8 58.6924 313.738 60.4365 324.174 c 0
 62.6426 337.378 64.8496 350.582 67.0557 363.786 c 0
 69.2969 377.201 72.5488 386.152 86.5713 385.523 c 0
 108.735 384.528 143.42 382.597 170.911 382.597 c 0
 179.786 382.597 185.212 386.748 185.056 396.563 c 0
 184.533 429.542 176.562 474.691 175.153 499.437 c 0
 174.446 511.86 179.567 515.617 190.056 515.164 c 2
 236.556 513.15 l 2
 246.001 512.742 251.178 510.092 250.465 502.071 c 0
 247.516 468.851 246.042 425.751 245.359 396.522 c 0
 245.155 387.754 250.565 382.498 259.556 382.585 c 0
 277.344 382.755 322.933 386.233 352.098 385.523 c 0
 367.044 385.159 368.588 380.896 366.953 370.895 c 2
 359.065 322.651 l 2
 357.039 310.26 349.887 310.592 337.008 311.049 c 0
 298.296 312.422 309.975 312.331 266.754 312.311 c 0
EndSplineSet
EndChar

StartChar: quotedblright
Encoding: 8221 8221 30
Width: 395
VWidth: 0
GlyphClass: 2
Flags: HW
LayerCount: 2
Fore
SplineSet
221.643 630.194 m 0
 211.536 657.219 222.115 698.531 255.479 711.009 c 0
 279.188 719.875 311.406 713.853 327.634 670.459 c 0
 345.753 619.923 326.516 561.3 302.328 525.25 c 0
 290.654 508.266 269.531 485.232 251.051 472.159 c 0
 244.929 467.828 239.235 467.843 232.461 471.598 c 0
 226.302 475.011 219.373 482.603 216.726 488.549 c 0
 213.816 495.083 214.42 499.942 219.011 503.668 c 0
 239.123 519.994 251.512 537.095 252.962 554.357 c 0
 254.414 571.637 250.47 587.24 242.42 598.821 c 0
 237.569 605.8 224.694 622.033 221.643 630.194 c 0
63.6729 630.194 m 0
 53.5664 657.219 64.1455 698.531 97.5088 711.009 c 0
 121.219 719.875 153.437 713.853 169.664 670.459 c 0
 187.783 619.923 168.546 561.3 144.358 525.25 c 0
 132.685 508.266 114.592 488.993 96.1123 475.92 c 0
 89.9893 471.589 84.2969 471.604 77.5225 475.358 c 0
 71.3633 478.771 64.4336 486.363 61.7861 492.31 c 0
 58.877 498.844 59.4814 503.703 64.0713 507.429 c 0
 84.1836 523.755 93.542 537.095 94.9922 554.357 c 0
 96.4443 571.637 92.5 587.24 84.4502 598.821 c 0
 79.5996 605.8 66.7246 622.033 63.6729 630.194 c 0
EndSplineSet
EndChar

StartChar: bracketright
Encoding: 93 93 31
Width: 306
VWidth: 0
GlyphClass: 2
Flags: HW
LayerCount: 2
Fore
SplineSet
190 757.016 m 0
 231.783 760.406 249.914 761.813 245 702.016 c 0
 222.73 431.026 224.357 163.914 245 -100.016 c 0
 250.004 -164.003 238.839 -158.606 190 -155.016 c 0
 149.094 -152.009 108.072 -149.511 67.8564 -150.016 c 0
 62.3389 -150.085 60 -146.51 60 -140.663 c 2
 60 -108.877 l 2
 60 -102.659 62.6758 -100.359 68.5713 -100.016 c 2
 154.285 -95.0156 l 2
 161.354 -94.6035 165.135 -91.166 165 -84.5918 c 0
 159.985 158.533 158.619 441.658 165 684.783 c 0
 165.224 693.307 160.079 696.455 150.714 697.016 c 2
 67.1836 702.016 l 2
 61.9619 702.328 60 705.204 60 710.394 c 2
 60 743.528 l 2
 60 749.92 62.4375 752.018 67.8662 752.016 c 0
 108.17 752.002 148.883 753.68 190 757.016 c 0
EndSplineSet
EndChar

StartChar: quotedbl
Encoding: 34 34 32
Width: 386
VWidth: 0
GlyphClass: 2
Flags: HW
LayerCount: 2
Fore
SplineSet
114.984 712.076 m 0
 151.82 712.49 166.546 704.346 164.315 648.234 c 0
 158.979 514.012 141.829 437.338 115.342 437.338 c 0
 94.127 437.338 64.2754 551.448 60.1592 646.718 c 0
 57.6191 705.505 85.9863 711.749 114.984 712.076 c 0
275.984 712.076 m 0
 312.82 712.49 327.546 704.346 325.315 648.234 c 0
 319.979 514.012 302.829 437.338 276.342 437.338 c 0
 255.127 437.338 225.275 551.448 221.159 646.718 c 0
 218.619 705.505 246.986 711.749 275.984 712.076 c 0
EndSplineSet
EndChar

StartChar: greater
Encoding: 62 62 33
Width: 519
VWidth: 0
GlyphClass: 2
Flags: HW
LayerCount: 2
Fore
SplineSet
334.631 359.993 m 0
 314.003 370.541 295.969 380.58 274.702 390.713 c 0
 221.574 416.025 152.604 444.13 77.1455 473.488 c 0
 66.584 477.598 63.2988 485.716 65.6387 493.529 c 0
 70.0156 508.143 81.5791 531.685 92.0303 546.325 c 0
 95.5889 551.31 102.688 551.148 108.898 547.368 c 0
 173.281 508.179 214.599 487.807 258.822 465.974 c 0
 335.437 428.15 374.258 410.125 444.117 384.177 c 0
 453.888 380.548 459.688 372.922 458.729 365.199 c 2
 453.76 325.218 l 2
 452.78 317.332 449.837 310.244 439.117 306.287 c 0
 374.562 282.46 334.633 265.621 257.822 228.49 c 0
 195.804 198.509 168.357 182.368 103.975 143.18 c 0
 97.7637 139.398 90.665 139.238 87.1074 144.222 c 0
 76.6553 158.862 65.0928 182.404 60.7158 197.019 c 0
 58.375 204.831 61.6602 212.949 72.2227 217.059 c 0
 147.681 246.417 216.575 274.438 269.702 299.75 c 0
 290.863 309.833 322.07 325.897 334.221 332.912 c 0
 351.584 342.937 351.327 351.455 334.631 359.993 c 0
EndSplineSet
EndChar

StartChar: plusminus
Encoding: 177 177 34
Width: 427
VWidth: 0
GlyphClass: 2
Flags: HW
LayerCount: 2
Fore
SplineSet
266.754 312.311 m 0
 255.693 312.306 249.914 310.165 249.914 300.292 c 0
 249.914 275.98 259.7 223.023 259.7 196.857 c 0
 259.7 187.423 257.005 184.559 247.912 184.543 c 2
 191.841 184.444 l 2
 185.46 184.433 180.612 190.525 181.014 197.216 c 0
 182.549 222.825 186.04 268.409 185.49 300.073 c 0
 185.345 308.459 181.098 311.996 173.135 311.996 c 0
 148.681 311.996 103.38 309.911 71.3691 309.049 c 0
 62.1455 308.8 58.6924 313.738 60.4365 324.174 c 0
 62.6426 337.378 64.8496 350.582 67.0557 363.786 c 0
 69.2969 377.201 72.5488 386.152 86.5713 385.523 c 0
 108.735 384.528 143.42 382.597 170.911 382.597 c 0
 179.786 382.597 185.212 386.748 185.056 396.563 c 0
 184.533 429.542 176.562 474.691 175.153 499.437 c 0
 174.446 511.86 179.567 515.617 190.056 515.164 c 2
 236.556 513.15 l 2
 246.001 512.742 251.178 510.092 250.465 502.071 c 0
 247.516 468.851 246.042 425.751 245.359 396.522 c 0
 245.155 387.754 250.565 382.498 259.556 382.585 c 0
 277.344 382.755 322.933 386.233 352.098 385.523 c 0
 367.044 385.159 368.588 380.896 366.953 370.895 c 2
 359.065 322.651 l 2
 357.039 310.26 349.887 310.592 337.008 311.049 c 0
 298.296 312.422 309.975 312.331 266.754 312.311 c 0
224.242 41.4102 m 0
 164.756 41.4102 135.615 36.5479 91 38.1475 c 0
 81.7783 38.4785 78.3232 42.8369 80.0674 53.2725 c 0
 82.2734 66.4766 84.4795 79.6807 86.6865 92.8848 c 0
 88.9277 106.301 92.1709 115.012 106.201 114.622 c 0
 131.212 113.928 144.159 111.622 204.848 111.622 c 0
 262.445 111.622 304.848 115.813 335.442 114.622 c 0
 350.382 114.041 351.934 109.995 350.298 99.9932 c 2
 342.41 51.75 l 2
 340.384 39.3584 333.239 39.998 320.354 40.1475 c 0
 293.635 40.459 257.171 41.4102 224.242 41.4102 c 0
EndSplineSet
EndChar

StartChar: endash
Encoding: 8211 8211 35
Width: 450
VWidth: 0
GlyphClass: 2
Flags: HW
LayerCount: 2
Fore
SplineSet
246.418 312.237 m 0
 202.658 312.238 132.72 311.414 68.2764 308.968 c 0
 61.7139 308.719 58.7383 313.741 60.499 324.125 c 2
 67.2266 363.82 l 2
 69.4883 377.169 71.1348 386.233 81.1104 385.603 c 0
 124.144 382.882 180.099 382.597 232.619 382.597 c 0
 273.598 382.597 332.623 387.188 378.879 385.603 c 0
 389.512 385.238 391.021 380.91 389.447 370.943 c 2
 381.817 322.599 l 2
 379.868 310.25 375.288 310.537 366.125 310.973 c 0
 316.93 313.309 291.405 312.237 246.418 312.237 c 0
EndSplineSet
EndChar

StartChar: bullet
Encoding: 8226 8226 36
Width: 318
VWidth: 0
GlyphClass: 2
Flags: HW
LayerCount: 2
Fore
SplineSet
158.217 435.338 m 0
 220.131 437.588 258.098 400.809 258.098 338.657 c 0
 258.098 262.908 226.623 227.327 163.567 227.327 c 0
 114.916 227.327 60 253.072 60 336.363 c 0
 60 406.349 109.979 433.585 158.217 435.338 c 0
EndSplineSet
EndChar

StartChar: bracketleft
Encoding: 91 91 37
Width: 306
VWidth: 0
GlyphClass: 2
Flags: HW
LayerCount: 2
Fore
SplineSet
116.092 757.016 m 0
 157.209 753.68 197.921 752.002 238.225 752.016 c 0
 243.654 752.018 246.092 749.92 246.092 743.528 c 2
 246.092 710.395 l 2
 246.092 705.204 244.13 702.328 238.907 702.016 c 2
 155.378 697.016 l 2
 146.012 696.455 140.868 693.307 141.092 684.783 c 0
 147.472 441.658 146.105 158.533 141.092 -84.5918 c 0
 140.956 -91.166 144.737 -94.6035 151.806 -95.0156 c 2
 237.521 -100.016 l 2
 243.416 -100.359 246.092 -102.659 246.092 -108.877 c 2
 246.092 -140.663 l 2
 246.092 -146.51 243.752 -150.085 238.234 -150.016 c 0
 198.02 -149.511 156.998 -152.009 116.092 -155.016 c 0
 67.2529 -158.606 56.0879 -164.003 61.0918 -100.016 c 0
 81.7334 163.914 83.3604 431.026 61.0918 702.016 c 0
 56.1777 761.813 74.3086 760.406 116.092 757.016 c 0
EndSplineSet
EndChar

StartChar: afii57658
Encoding: 1475 1475 38
Width: 257
VWidth: 0
GlyphClass: 2
Flags: HW
LayerCount: 2
Fore
SplineSet
127.777 434.2 m 0
 110.874 434.875 60 498.551 60 521.28 c 0
 60 545.076 114.308 611.991 131.47 611.991 c 0
 151.188 611.991 196.703 541.34 196.703 519.539 c 0
 196.703 498.334 148.384 433.377 127.777 434.2 c 0
127.777 163.892 m 0
 148.384 164.715 196.703 99.7578 196.703 78.5527 c 0
 196.703 56.752 151.188 -13.8994 131.47 -13.8994 c 0
 114.308 -13.8994 60 53.0156 60 76.8115 c 0
 60 99.541 110.874 163.217 127.777 163.892 c 0
EndSplineSet
EndChar

StartChar: parenright
Encoding: 41 41 39
Width: 310
VWidth: 0
GlyphClass: 2
Flags: HW
LayerCount: 2
Fore
SplineSet
101.635 753.216 m 0
 195.6 623.606 250.379 478.849 250.379 306.662 c 0
 250.379 125.95 189.688 -25.0332 87.4736 -158.19 c 0
 76.4102 -172.604 67.1934 -171.869 65.2539 -159.635 c 2
 60.5127 -129.726 l 2
 59.1396 -121.07 60.6201 -115.326 63.7852 -109.978 c 0
 140.021 18.877 170.688 142.351 170.688 306.662 c 0
 170.688 464.952 146.079 578.971 71.5518 709.188 c 0
 68.8848 713.848 69.0068 719.302 70.042 725.882 c 2
 74.7197 755.635 l 2
 76.7363 768.457 89.5459 769.891 101.635 753.216 c 0
EndSplineSet
EndChar

StartChar: divide
Encoding: 247 247 40
Width: 441
VWidth: 0
GlyphClass: 2
Flags: HW
LayerCount: 2
Fore
SplineSet
230.611 312.312 m 0
 171.126 312.312 115.985 307.448 71.3691 309.049 c 0
 62.1475 309.379 58.6924 313.738 60.4365 324.174 c 0
 62.6426 337.378 64.8496 350.582 67.0557 363.786 c 0
 69.2969 377.201 72.54 385.913 86.5713 385.523 c 0
 111.581 384.828 150.529 382.523 211.217 382.523 c 0
 268.814 382.523 335.217 386.714 365.812 385.523 c 0
 380.751 384.941 382.303 380.896 380.667 370.895 c 2
 372.779 322.651 l 2
 370.753 310.26 363.608 310.898 350.723 311.049 c 0
 324.003 311.359 263.54 312.311 230.611 312.312 c 0
217.695 245.089 m 0
 254.889 246.575 277.695 222.288 277.695 181.247 c 0
 277.695 131.227 258.788 107.732 220.91 107.732 c 0
 191.685 107.732 158.695 124.732 158.695 179.732 c 0
 158.695 225.946 188.719 243.932 217.695 245.089 c 0
216.415 447.196 m 0
 179.223 445.711 156.415 469.998 156.415 511.038 c 0
 156.415 561.059 175.323 584.554 213.201 584.554 c 0
 242.427 584.554 275.415 567.554 275.415 512.554 c 0
 275.415 466.339 245.393 448.354 216.415 447.196 c 0
EndSplineSet
EndChar

StartChar: perthousand
Encoding: 8240 8240 41
Width: 951
VWidth: 0
GlyphClass: 2
Flags: HW
LayerCount: 2
Fore
SplineSet
706.188 607.79 m 0
 712.642 614.549 717.168 615.674 722.748 611.16 c 0
 736.553 599.993 753.916 579.997 761.935 567.02 c 0
 766.222 560.082 765.156 551.389 756.021 544.68 c 0
 652.966 468.983 511.124 353.432 382.76 243.743 c 0
 338.528 205.947 203.221 96.709 164.411 57.5635 c 0
 150.466 43.498 142.898 42.0215 128.052 41.3682 c 0
 108.457 40.5059 89.5898 41.7676 73.2764 47.9385 c 0
 61.9092 52.2393 49.9121 62.2764 73.877 80.0801 c 0
 205.817 178.099 365.254 302.792 454.645 378.756 c 0
 532.534 444.947 630.032 528.043 706.188 607.79 c 0
384.709 453.582 m 0
 373.699 384.068 314.126 335.738 251.648 345.634 c 0
 189.171 355.529 147.449 419.903 158.459 489.417 c 0
 169.469 558.931 229.042 607.261 291.519 597.365 c 0
 353.996 587.47 395.719 523.096 384.709 453.582 c 0
271.584 531.16 m 0
 238.578 531.16 211.822 504.449 211.822 471.5 c 0
 211.822 438.55 238.578 411.839 271.584 411.839 c 0
 304.589 411.839 331.346 438.55 331.346 471.5 c 0
 331.346 504.449 304.589 531.16 271.584 531.16 c 0
627.793 96.582 m 0
 616.783 27.0684 557.21 -21.2617 494.733 -11.3662 c 0
 432.256 -1.4707 390.533 62.9033 401.543 132.417 c 0
 412.553 201.931 472.126 250.261 534.604 240.365 c 0
 597.081 230.47 638.804 166.096 627.793 96.582 c 0
514.668 174.161 m 0
 481.663 174.161 454.907 147.449 454.907 114.5 c 0
 454.907 81.5498 481.663 54.8389 514.668 54.8389 c 0
 547.674 54.8389 574.43 81.5498 574.43 114.5 c 0
 574.43 147.449 547.674 174.161 514.668 174.161 c 0
889.41 98.1924 m 0
 878.4 28.6787 818.827 -19.6514 756.351 -9.75586 c 0
 693.873 0.139648 652.15 64.5137 663.16 134.027 c 0
 674.17 203.541 733.743 251.871 796.221 241.976 c 0
 858.697 232.08 900.42 167.706 889.41 98.1924 c 0
776.285 175.771 m 0
 743.28 175.771 716.523 149.06 716.523 116.109 c 0
 716.523 83.1602 743.28 56.4492 776.285 56.4492 c 0
 809.291 56.4492 836.047 83.1602 836.047 116.109 c 0
 836.047 149.06 809.291 175.771 776.285 175.771 c 0
EndSplineSet
EndChar

StartChar: periodcentered
Encoding: 183 183 42
Width: 239
VWidth: 0
GlyphClass: 2
Flags: HW
LayerCount: 2
Fore
SplineSet
119 417.453 m 0
 156.193 418.939 179 394.652 179 353.611 c 0
 179 303.591 160.093 280.096 122.215 280.096 c 0
 92.9893 280.096 60 297.096 60 352.096 c 0
 60 398.311 90.0234 416.296 119 417.453 c 0
EndSplineSet
EndChar

StartChar: semicolon
Encoding: 59 59 43
Width: 244
VWidth: 0
GlyphClass: 2
Flags: HW
LayerCount: 2
Fore
SplineSet
125.396 291.139 m 0
 88.2031 289.652 65.3955 313.939 65.3955 354.98 c 0
 65.3955 405.001 84.3027 428.495 122.182 428.495 c 0
 151.407 428.495 184.396 411.495 184.396 356.495 c 0
 184.396 310.281 154.372 292.296 125.396 291.139 c 0
70.3643 29.0098 m 0
 58.8525 55.4658 67.2471 97.2773 99.9102 111.489 c 0
 123.121 121.589 155.61 117.266 174.095 74.7842 c 0
 194.843 25.2695 175.658 -32.6211 156.449 -71.5527 c 0
 147.247 -90.2041 125.87 -124.886 97.1797 -156.355 c 0
 92.126 -161.897 85.6064 -161.286 78.6445 -157.893 c 0
 72.3145 -154.808 64.9961 -147.59 62.04 -141.791 c 0
 58.792 -135.418 59.5215 -130.92 63.5283 -126.572 c 0
 87.8154 -100.22 103.419 -69.4316 105.623 -45.0781 c 0
 107.186 -27.8086 101.407 -12.3711 92.7598 -1.22852 c 0
 87.5498 5.48535 73.8408 21.0195 70.3643 29.0098 c 0
EndSplineSet
EndChar

StartChar: afii57842
Encoding: 1472 1472 44
Width: 195
VWidth: 0
GlyphClass: 2
Flags: HW
LayerCount: 2
Fore
SplineSet
126.812 647.016 m 2
 131.451 647.018 134.939 643.488 134.939 639.51 c 0
 134.939 631.386 132.972 450.153 132.972 262.117 c 0
 132.972 74.0801 135 -57.1006 135 -59.4004 c 0
 135.001 -61.7012 129.967 -67.5762 125.78 -67.5762 c 2
 67.8984 -67.5752 l 2
 64.8311 -67.5752 59.9814 -63.8252 60 -59.168 c 2
 60 -59.168 64.9639 162.187 65.5908 316.667 c 0
 66.2188 471.146 62.9395 638.627 62.9395 638.627 c 2
 62.959 643.519 66.791 646.989 71.6562 646.991 c 2
 126.812 647.016 l 2
EndSplineSet
EndChar

StartChar: bar
Encoding: 124 124 45
Width: 195
VWidth: 0
GlyphClass: 2
Flags: HW
LayerCount: 2
Fore
SplineSet
126.812 756.513 m 2
 131.451 756.515 134.939 752.986 134.939 749.008 c 0
 134.939 740.883 132.972 450.153 132.972 262.117 c 0
 132.972 74.0801 135 -157.101 135 -159.4 c 0
 135.001 -161.701 129.967 -167.576 125.78 -167.576 c 2
 67.8984 -167.575 l 2
 64.8311 -167.575 59.9814 -163.825 60 -159.168 c 2
 60 -159.168 64.9639 162.187 65.5908 316.667 c 0
 66.2188 471.146 62.9395 748.124 62.9395 748.124 c 2
 62.959 753.016 66.791 756.486 71.6562 756.488 c 2
 126.812 756.513 l 2
EndSplineSet
EndChar

StartChar: colon
Encoding: 58 58 46
Width: 241
VWidth: 0
GlyphClass: 2
Flags: HW
LayerCount: 2
Fore
SplineSet
121.28 127.453 m 0
 158.474 128.939 181.28 104.652 181.28 63.6113 c 0
 181.28 13.5908 162.373 -9.9043 124.495 -9.9043 c 0
 95.2695 -9.9043 62.2803 7.0957 62.2803 62.0957 c 0
 62.2803 108.311 92.3037 126.296 121.28 127.453 c 0
120 285.561 m 0
 82.8076 284.074 60 308.361 60 349.402 c 0
 60 399.423 78.9072 422.917 116.786 422.917 c 0
 146.012 422.917 179 405.917 179 350.917 c 0
 179 304.703 148.978 286.718 120 285.561 c 0
EndSplineSet
EndChar

StartChar: period
Encoding: 46 46 47
Width: 239
VWidth: 0
GlyphClass: 2
Flags: HW
LayerCount: 2
Fore
SplineSet
119 127.453 m 0
 156.193 128.939 179 104.652 179 63.6113 c 0
 179 13.5908 160.093 -9.9043 122.215 -9.9043 c 0
 92.9893 -9.9043 60 7.0957 60 62.0957 c 0
 60 108.311 90.0234 126.296 119 127.453 c 0
EndSplineSet
EndChar

StartChar: uni05F3
Encoding: 1523 1523 48
Width: 303
VWidth: 0
GlyphClass: 2
Flags: HW
LayerCount: 2
Fore
SplineSet
215.586 611.596 m 0
 251.984 609.08 248.257 582.124 226.145 530.505 c 0
 191.652 449.989 94.876 367.651 76.7695 372.615 c 0
 70.5273 374.326 64.8057 378.529 61.0732 384.274 c 0
 52.3643 397.678 98.3174 448.622 138.894 579.185 c 0
 149.087 611.984 157.213 615.631 215.586 611.596 c 0
EndSplineSet
EndChar

StartChar: less
Encoding: 60 60 49
Width: 519
VWidth: 0
GlyphClass: 2
Flags: HW
LayerCount: 2
Fore
SplineSet
185.012 358.225 m 0
 171.268 351.197 170.887 338.418 185.321 330.084 c 0
 197.472 323.069 223.021 309.833 244.183 299.75 c 0
 297.311 274.438 366.204 246.417 441.663 217.059 c 0
 452.225 212.949 455.51 204.831 453.17 197.019 c 0
 448.793 182.404 437.229 158.862 426.778 144.222 c 0
 423.22 139.238 416.121 139.398 409.91 143.18 c 0
 345.527 182.368 318.082 198.509 256.062 228.49 c 0
 179.252 265.621 139.324 282.46 74.7686 306.287 c 0
 64.0488 310.244 59.1328 317.333 60.125 325.218 c 2
 65.1572 365.199 l 2
 66.1289 372.921 69.998 380.548 79.7686 384.177 c 0
 149.627 410.125 188.449 428.15 265.063 465.974 c 0
 309.286 487.807 350.604 508.179 414.986 547.368 c 0
 421.198 551.148 428.296 551.31 431.854 546.325 c 0
 442.307 531.685 453.869 508.143 458.246 493.529 c 0
 460.587 485.716 457.302 477.598 446.739 473.488 c 0
 371.28 444.13 302.311 416.025 249.184 390.713 c 0
 227.916 380.58 205.64 368.773 185.012 358.225 c 0
EndSplineSet
EndChar

StartChar: slash
Encoding: 47 47 50
Width: 519
VWidth: 0
GlyphClass: 2
Flags: HW
LayerCount: 2
Fore
SplineSet
384.359 698.277 m 0
 386.684 705.167 392.016 709.856 397.945 708.329 c 0
 415.365 703.842 439.361 693.255 452.113 684.881 c 0
 458.93 680.404 461.637 672.075 456.193 662.135 c 0
 394.773 549.982 320.117 396.19 250.123 242.536 c 0
 226.006 189.591 171.154 69.5869 152.521 17.709 c 0
 144.977 -3.2959 144.244 -7.8457 126.244 -12.3848 c 0
 108.939 -16.749 98.0137 -17.752 76.7773 -17.752 c 0
 64.625 -17.752 52.7539 -16.3447 65.4512 7.14355 c 0
 143.617 151.732 209.307 288.657 258.229 395.278 c 0
 300.855 488.182 349.119 593.791 384.359 698.277 c 0
EndSplineSet
EndChar

StartChar: uni05F4
Encoding: 1524 1524 51
Width: 461
VWidth: 0
GlyphClass: 2
Flags: HW
LayerCount: 2
Fore
SplineSet
215.586 611.596 m 0
 251.984 609.08 248.257 582.124 226.145 530.505 c 0
 191.652 449.989 94.876 367.651 76.7695 372.615 c 0
 70.5273 374.326 64.8057 378.529 61.0732 384.274 c 0
 52.3643 397.678 98.3174 448.622 138.894 579.185 c 0
 149.087 611.984 157.213 615.631 215.586 611.596 c 0
373.833 613.596 m 0
 410.231 611.08 406.504 584.124 384.391 532.505 c 0
 349.899 451.989 249.123 363.651 231.017 368.615 c 0
 224.774 370.326 219.053 374.529 215.32 380.274 c 0
 206.611 393.678 256.564 450.622 297.141 581.185 c 0
 307.334 613.984 315.46 617.631 373.833 613.596 c 0
EndSplineSet
EndChar

StartChar: hyphen
Encoding: 45 45 52
Width: 369
VWidth: 0
GlyphClass: 2
Flags: HW
LayerCount: 2
Fore
SplineSet
193.546 312.31 m 0
 134.498 312.31 115.572 307.446 71.2852 309.047 c 0
 62.1309 309.378 58.7021 313.736 60.4326 324.173 c 0
 62.623 337.377 64.8125 350.582 67.0029 363.787 c 0
 69.2285 377.203 72.4473 385.915 86.375 385.525 c 0
 111.201 384.83 114.053 382.524 174.294 382.524 c 0
 231.468 382.524 263.56 386.716 293.929 385.525 c 0
 308.758 384.943 310.298 380.897 308.675 370.896 c 2
 300.845 322.649 l 2
 298.834 310.258 291.741 310.896 278.95 311.047 c 0
 252.428 311.357 226.232 312.31 193.546 312.31 c 0
EndSplineSet
EndChar

StartChar: asterisk
Encoding: 42 42 53
Width: 389
VWidth: 0
GlyphClass: 2
Flags: HW
LayerCount: 2
Fore
SplineSet
302.341 478.229 m 0
 248.346 417.971 231.903 541.699 209.5 533.891 c 0
 187.097 526.082 251.083 411.179 170.573 424.938 c 0
 90.0645 438.695 186.13 518.23 167.919 535.01 c 0
 149.709 551.789 86.5117 441.212 63.207 519.303 c 0
 39.9023 597.393 151.11 549.89 155.121 573.946 c 0
 159.132 598.002 27.0312 598.867 79.4141 660.697 c 0
 131.797 722.528 152.854 599.233 177.113 609.451 c 0
 201.373 619.67 134.682 726.008 214.871 713.188 c 0
 295.062 700.367 201.281 620.08 217.624 604.958 c 0
 233.966 589.836 302.127 697.627 326.061 619.608 c 0
 349.994 541.589 233.117 590.058 231.993 565.863 c 0
 230.87 541.669 356.337 538.488 302.341 478.229 c 0
EndSplineSet
EndChar

StartChar: quoteright
Encoding: 8217 8217 54
Width: 240
VWidth: 0
GlyphClass: 2
Flags: HW
LayerCount: 2
Fore
SplineSet
66.6924 630.194 m 0
 56.5859 657.219 67.165 698.531 100.528 711.009 c 0
 124.238 719.875 156.455 713.853 172.684 670.459 c 0
 190.802 619.923 171.565 561.3 147.377 525.25 c 0
 135.704 508.266 114.581 485.232 96.1006 472.159 c 0
 89.9785 467.828 84.2852 467.843 77.5107 471.598 c 0
 71.3516 475.011 64.4229 482.603 61.7754 488.549 c 0
 58.8652 495.083 59.4697 499.942 64.0605 503.668 c 0
 84.1729 519.994 96.5605 537.095 98.0117 554.357 c 0
 99.4639 571.637 95.5186 587.24 87.4688 598.821 c 0
 82.6182 605.8 69.7441 622.033 66.6924 630.194 c 0
EndSplineSet
EndChar

StartChar: underscore
Encoding: 95 95 55
Width: 719
VWidth: 0
GlyphClass: 2
Flags: HW
LayerCount: 2
Fore
SplineSet
659.089 9.1582 m 2
 659.091 4.51758 655.562 1.03027 651.583 1.03027 c 0
 643.459 1.03027 516.729 2 328.692 2 c 0
 140.656 2 70.4746 0.96875 68.1748 0.96875 c 0
 65.874 0.96875 60 6.00293 60 10.1885 c 2
 60 68.0713 l 2
 60 71.1387 63.75 75.9883 68.4072 75.9688 c 2
 68.4072 75.9688 228.762 74.0049 383.242 73.3779 c 0
 537.723 72.751 650.7 73.0303 650.7 73.0303 c 2
 655.592 73.0098 659.062 69.1787 659.064 64.3135 c 2
 659.089 9.1582 l 2
EndSplineSet
EndChar

StartChar: comma
Encoding: 44 44 56
Width: 243
VWidth: 0
GlyphClass: 2
Flags: HW
LayerCount: 2
Fore
SplineSet
70.3633 29.1494 m 0
 58.8516 55.6055 67.2471 97.417 99.9092 111.629 c 0
 123.12 121.729 155.61 117.406 174.095 74.9238 c 0
 194.842 25.4102 175.657 -32.4814 156.448 -71.4131 c 0
 147.246 -90.0635 125.869 -124.745 97.1787 -156.215 c 0
 92.126 -161.758 85.6064 -161.146 78.6436 -157.753 c 0
 72.3135 -154.668 64.9951 -147.449 62.04 -141.651 c 0
 58.791 -135.278 59.5205 -130.78 63.5283 -126.433 c 0
 87.8145 -100.079 103.418 -69.292 105.622 -44.9375 c 0
 107.185 -27.6689 101.406 -12.2314 92.7588 -1.08887 c 0
 87.5488 5.625 73.8398 21.1602 70.3633 29.1494 c 0
EndSplineSet
EndChar

StartChar: asciicircum
Encoding: 94 94 57
Width: 530
VWidth: 0
GlyphClass: 2
Flags: HW
LayerCount: 2
Fore
SplineSet
250.149 474.489 m 0
 239.602 453.861 229.562 435.827 219.429 414.561 c 0
 194.116 361.433 166.013 292.463 136.654 217.004 c 0
 132.545 206.442 124.426 203.157 116.613 205.497 c 0
 101.999 209.874 78.458 221.438 63.8174 231.889 c 0
 58.833 235.447 58.9932 242.546 62.7744 248.757 c 0
 101.963 313.14 122.336 354.457 144.168 398.681 c 0
 181.991 475.294 200.017 514.116 225.965 583.975 c 0
 229.595 593.746 237.22 599.546 244.943 598.586 c 2
 284.924 593.618 l 2
 292.811 592.639 299.898 589.695 303.855 578.976 c 0
 327.682 514.42 344.521 474.491 381.652 397.681 c 0
 411.633 335.662 427.773 308.216 466.963 243.833 c 0
 470.743 237.622 470.904 230.523 465.92 226.966 c 0
 451.279 216.514 427.737 204.951 413.124 200.573 c 0
 405.311 198.233 397.192 201.519 393.083 212.081 c 0
 363.725 287.539 335.704 356.433 310.392 409.561 c 0
 300.31 430.722 284.244 461.929 277.229 474.078 c 0
 267.205 491.441 258.688 491.186 250.149 474.489 c 0
EndSplineSet
EndChar

StartChar: question
Encoding: 63 63 58
Width: 421
VWidth: 0
GlyphClass: 2
Flags: HW
LayerCount: 2
Fore
SplineSet
148.557 127.453 m 0
 185.75 128.939 208.557 104.652 208.557 63.6113 c 0
 208.557 13.5908 189.649 -9.9043 151.771 -9.9043 c 0
 122.546 -9.9043 89.5566 7.0957 89.5566 62.0957 c 0
 89.5566 108.311 119.58 126.296 148.557 127.453 c 0
124.027 252.954 m 2
 103.027 343.954 l 2
 99.2295 360.41 113.793 372.37 144.027 385.954 c 0
 283.28 448.52 301.027 474.5 301.027 525.954 c 0
 301.027 577.409 291.153 629.954 177.027 629.954 c 0
 158.835 629.954 115.811 625.965 90.8779 614.907 c 0
 81.6338 610.808 75.4346 612.155 71.1035 623.355 c 0
 64.377 640.754 60.6582 655.86 60.0273 673.954 c 0
 59.5391 687.946 65.4043 691.577 86.0273 697.954 c 0
 114.094 706.634 147.166 710.954 179.027 710.954 c 0
 296.45 710.954 361.027 703.312 361.027 541.954 c 0
 361.027 434.848 311.942 404.637 229.027 357.954 c 0
 184.649 332.969 172.027 304.08 172.027 256.954 c 0
 172.027 240.384 170.07 238.758 162.027 234.954 c 0
 156.533 232.356 144.261 230.357 136.24 231.133 c 0
 128.006 231.93 127.592 237.508 124.027 252.954 c 2
EndSplineSet
EndChar

StartChar: percent
Encoding: 37 37 59
Width: 683
VWidth: 0
GlyphClass: 2
Flags: HW
LayerCount: 2
Fore
SplineSet
556.669 612.746 m 0
 561.852 620.522 566.114 622.416 572.394 618.94 c 0
 587.927 610.341 608.499 593.663 618.649 582.275 c 0
 624.076 576.188 624.536 567.441 616.706 559.248 c 0
 528.36 466.807 421.594 343.7 314.228 213.388 c 0
 277.231 168.485 188.052 60.6357 156.63 15.3457 c 0
 143.906 -2.99219 142.013 -4.28809 123.461 -4.92578 c 0
 105.616 -5.53906 91.4277 -4.55566 74.291 -1.31152 c 0
 62.3496 0.950195 51.4482 8.26465 69.791 27.668 c 0
 182.706 147.108 286.733 268.499 361.574 358.832 c 0
 426.788 437.543 495.52 520.986 556.669 612.746 c 0
307.564 453.582 m 0
 296.555 384.068 236.981 335.738 174.504 345.634 c 0
 112.026 355.529 70.3047 419.903 81.3145 489.417 c 0
 92.3242 558.931 151.897 607.261 214.374 597.365 c 0
 276.852 587.47 318.574 523.096 307.564 453.582 c 0
194.439 531.16 m 0
 161.434 531.16 134.678 504.449 134.678 471.5 c 0
 134.678 438.55 161.434 411.839 194.439 411.839 c 0
 227.444 411.839 254.201 438.55 254.201 471.5 c 0
 254.201 504.449 227.444 531.16 194.439 531.16 c 0
612.649 102.582 m 0
 601.639 33.0684 542.066 -15.2617 479.589 -5.36621 c 0
 417.111 4.5293 375.389 68.9033 386.398 138.417 c 0
 397.409 207.931 456.981 256.261 519.459 246.365 c 0
 581.937 236.47 623.659 172.097 612.649 102.582 c 0
499.524 180.161 m 0
 466.519 180.161 439.763 153.449 439.763 120.5 c 0
 439.763 87.5498 466.519 60.8389 499.524 60.8389 c 0
 532.529 60.8389 559.285 87.5498 559.285 120.5 c 0
 559.285 153.449 532.529 180.161 499.524 180.161 c 0
EndSplineSet
EndChar

StartChar: braceright
Encoding: 125 125 60
Width: 434
VWidth: 0
GlyphClass: 2
Flags: HW
LayerCount: 2
Fore
SplineSet
218.406 307.928 m 2
 257.139 326.381 l 2
 275.323 335.045 274.633 346.583 257.448 354.522 c 2
 218.342 372.59 l 2
 206.027 378.279 205.998 381.012 205.998 399.073 c 0
 205.998 507.571 197.936 575.909 174.122 664.783 c 0
 170.555 678.097 164.594 684.333 153.836 687.016 c 0
 128.138 693.425 108.119 694.677 75.292 693.267 c 0
 68.8652 692.991 66.1836 694.937 65.4375 699.195 c 0
 63.8564 708.218 62.2754 717.241 60.6934 726.265 c 0
 59.4404 733.418 60.6084 741.16 67.9883 742.016 c 0
 107.026 746.538 153.143 745.396 195.122 737.016 c 0
 239.666 728.123 241.858 717.838 250.122 682.016 c 0
 270.195 595 275.61 530.31 275.61 431.207 c 0
 275.61 419.965 280.432 410.605 287.309 407.603 c 0
 309.679 397.836 331.373 389.968 359.692 380.474 c 0
 369.575 377.161 375.264 369.22 374.304 361.496 c 2
 369.336 321.516 l 2
 368.203 312.398 364.231 305.825 354.693 302.584 c 0
 325.81 292.77 313.907 284.614 291.161 272.701 c 0
 280.611 267.177 274.353 258.251 274.353 248.707 c 0
 274.353 131.803 267.574 33.7383 250.122 -84.0156 c 0
 244.089 -124.725 243.118 -131.294 195.122 -141.016 c 0
 157.073 -148.723 105.267 -150.541 68.9795 -148.016 c 0
 63.4746 -147.633 59.2139 -144.438 60.1221 -138.663 c 0
 61.7891 -128.067 63.4551 -117.473 65.1221 -106.877 c 0
 66.0879 -100.735 67.7881 -98.0156 73.6934 -98.0156 c 0
 105.188 -98.0156 131.975 -94.6553 155.408 -87.0156 c 0
 166.772 -83.3105 172.157 -78.7656 174.122 -68.5918 c 0
 195.93 44.3291 205.879 151.52 205.879 283.355 c 0
 205.879 297.136 205.97 302.002 218.406 307.928 c 2
EndSplineSet
EndChar

StartChar: ellipsis
Encoding: 8230 8230 61
Width: 765
VWidth: 0
GlyphClass: 2
Flags: HW
LayerCount: 2
Fore
SplineSet
119 127.453 m 0
 156.193 128.939 179 104.652 179 63.6113 c 0
 179 13.5908 160.093 -9.9043 122.215 -9.9043 c 0
 92.9893 -9.9043 60 7.0957 60 62.0957 c 0
 60 108.311 90.0234 126.296 119 127.453 c 0
382.146 127.453 m 0
 421.38 127.453 442.146 107.683 442.146 63.6113 c 0
 442.146 13.5908 423.238 -9.9043 385.36 -9.9043 c 0
 347.043 -9.9043 323.146 10.8838 323.146 62.0957 c 0
 323.146 108.311 353.146 127.453 382.146 127.453 c 0
646.291 127.453 m 0
 675.269 126.296 705.291 108.311 705.291 62.0957 c 0
 705.291 7.0957 672.303 -9.9043 643.077 -9.9043 c 0
 605.199 -9.9043 586.291 13.5908 586.291 63.6113 c 0
 586.291 104.652 609.099 128.939 646.291 127.453 c 0
EndSplineSet
EndChar

StartChar: quotesingle
Encoding: 39 39 62
Width: 225
VWidth: 0
GlyphClass: 2
Flags: HW
LayerCount: 2
Fore
SplineSet
114.984 712.076 m 0
 151.82 712.49 166.546 704.346 164.315 648.234 c 0
 158.979 514.012 141.829 437.338 115.342 437.338 c 0
 94.127 437.338 64.2754 551.448 60.1592 646.718 c 0
 57.6191 705.505 85.9863 711.749 114.984 712.076 c 0
EndSplineSet
EndChar

StartChar: equal
Encoding: 61 61 63
Width: 395
VWidth: 0
GlyphClass: 2
Flags: HW
LayerCount: 2
Fore
SplineSet
208.611 370.312 m 0
 149.126 370.312 119.985 365.448 75.3691 367.049 c 0
 66.1475 367.379 62.6924 371.738 64.4365 382.174 c 0
 66.6426 395.377 68.8496 408.582 71.0557 421.786 c 0
 73.2979 435.201 76.54 443.913 90.5713 443.523 c 0
 115.581 442.828 128.529 440.523 189.217 440.523 c 0
 246.814 440.523 289.218 444.714 319.812 443.523 c 0
 334.751 442.941 336.303 438.896 334.668 428.895 c 2
 326.779 380.65 l 2
 324.753 368.259 317.608 368.898 304.723 369.049 c 0
 278.004 369.359 241.54 370.311 208.611 370.312 c 0
204.611 228.652 m 0
 145.126 228.652 115.985 223.789 71.3691 225.389 c 0
 62.1475 225.72 58.6924 230.079 60.4365 240.514 c 0
 62.6426 253.718 64.8496 266.922 67.0557 280.127 c 0
 69.2979 293.542 72.54 302.254 86.5713 301.864 c 0
 111.581 301.169 124.529 298.864 185.217 298.864 c 0
 242.814 298.864 285.218 303.055 315.812 301.864 c 0
 330.751 301.282 332.303 297.236 330.668 287.235 c 2
 322.779 238.991 l 2
 320.753 226.6 313.608 227.239 300.723 227.39 c 0
 274.004 227.7 237.54 228.651 204.611 228.652 c 0
EndSplineSet
EndChar

StartChar: afii57673
Encoding: 1497 1497 64
Width: 334
VWidth: 0
GlyphClass: 2
Flags: HW
AnchorPoint: "LowNarrowNiqqud" 190 0 basechar 0
AnchorPoint: "LowWideNiqqud" 185 0 basechar 0
AnchorPoint: "HighNiqqud" 60 0 basechar 0
AnchorPoint: "Dagesh" 115 105 basechar 0
AnchorPoint: "Rafe" 167 0 basechar 0
LayerCount: 2
Fore
SplineSet
225.85 282.946 m 0
 219.776 267.965 179.47 256.521 173.516 256.111 c 0
 167.572 255.702 165.037 257.155 165.529 261.227 c 0
 172.045 315.108 216.25 426.571 145.966 469.039 c 2
 68.3604 515.931 l 2
 59.7256 521.148 57.8486 533.313 62.4082 542.083 c 2
 87.9648 591.24 l 2
 95.3213 605.391 106.229 608.469 116.528 604.061 c 0
 171.76 580.419 201.065 560.828 259.939 515.02 c 0
 268.313 508.504 275.992 495.369 273.452 480.928 c 0
 258.896 398.164 237.519 311.732 225.85 282.946 c 0
EndSplineSet
PairPos2: "kernHorizontalKerning subtable" ellipsis dx=-25 dy=0 dh=-25 dv=0 dx=0 dy=0 dh=0 dv=0
PairPos2: "kernHorizontalKerning subtable" underscore dx=-25 dy=0 dh=-25 dv=0 dx=0 dy=0 dh=0 dv=0
PairPos2: "kernHorizontalKerning subtable" backslash dx=-25 dy=0 dh=-25 dv=0 dx=0 dy=0 dh=0 dv=0
PairPos2: "kernHorizontalKerning subtable" period dx=-25 dy=0 dh=-25 dv=0 dx=0 dy=0 dh=0 dv=0
PairPos2: "kernHorizontalKerning subtable" comma dx=-25 dy=0 dh=-25 dv=0 dx=0 dy=0 dh=0 dv=0
PairPos2: "kernHorizontalKerning subtable" afii57679 dx=25 dy=0 dh=25 dv=0 dx=0 dy=0 dh=0 dv=0
PairPos2: "kernHorizontalKerning subtable" afii57665 dx=-25 dy=0 dh=-25 dv=0 dx=0 dy=0 dh=0 dv=0
EndChar

StartChar: afii57676
Encoding: 1500 1500 65
Width: 538
VWidth: 0
GlyphClass: 2
Flags: HW
AnchorPoint: "LowNarrowNiqqud" 250 0 basechar 0
AnchorPoint: "LowWideNiqqud" 250 0 basechar 0
AnchorPoint: "HighNiqqud" 30 0 basechar 0
AnchorPoint: "Dagesh" 270 25 basechar 0
AnchorPoint: "Rafe" 269 0 basechar 0
LayerCount: 2
Fore
SplineSet
293.994 591.919 m 0
 515.316 588.123 476.538 574.132 503.942 391.001 c 0
 513.582 326.576 506.073 295.654 480.03 254.196 c 0
 444.485 197.613 411.232 151.58 366.571 102.471 c 0
 339.911 73.1562 291.403 22.4443 259.708 -6.15039 c 0
 255.53 -9.91895 247.376 -12.5898 243.321 -7.35156 c 0
 227.327 13.3105 220.366 22.5127 211.554 38.9238 c 0
 209.46 42.8223 211.379 47.8242 215.352 50.8984 c 0
 238.376 68.7139 269.155 95.6602 300.613 126.153 c 0
 352.547 176.491 396.509 231.68 434.301 294.599 c 0
 444.629 311.795 447.127 323.566 441.828 376.772 c 0
 439.676 398.386 433.495 480.33 360.893 483.71 c 0
 240.916 489.295 205.422 486.908 84.9854 484.631 c 0
 70.4932 484.357 59.1768 489.672 59.792 499.194 c 0
 60.4121 508.775 66.7539 557.784 66.8125 585.744 c 0
 66.8857 620.702 66.958 653.659 67.0312 688.617 c 0
 67.1406 741.26 57.9307 779.785 36.1562 817.367 c 0
 32.0898 824.386 27.709 831.316 31.375 838.367 c 0
 34.6865 844.736 48.749 868.902 54.375 878.894 c 0
 62.1289 892.665 69.1748 896.447 78.9062 892.211 c 0
 90.8477 887.013 120.101 867.069 130.969 857.805 c 0
 137.461 852.271 151.095 841.656 144.375 830.398 c 0
 119.341 788.457 119.049 774.693 119.094 721.242 c 0
 119.125 684.073 119.157 648.904 119.188 611.735 c 0
 119.197 600.696 128.966 594.729 142.213 594.244 c 0
 155.46 593.759 245.978 592.742 293.994 591.919 c 0
EndSplineSet
PairPos2: "kernHorizontalKerning subtable" ellipsis dx=-25 dy=0 dh=-25 dv=0 dx=0 dy=0 dh=0 dv=0
PairPos2: "kernHorizontalKerning subtable" underscore dx=-25 dy=0 dh=-25 dv=0 dx=0 dy=0 dh=0 dv=0
PairPos2: "kernHorizontalKerning subtable" backslash dx=-25 dy=0 dh=-25 dv=0 dx=0 dy=0 dh=0 dv=0
PairPos2: "kernHorizontalKerning subtable" period dx=-25 dy=0 dh=-25 dv=0 dx=0 dy=0 dh=0 dv=0
PairPos2: "kernHorizontalKerning subtable" comma dx=-25 dy=0 dh=-25 dv=0 dx=0 dy=0 dh=0 dv=0
PairPos2: "kernHorizontalKerning subtable" afii57665 dx=-25 dy=0 dh=-25 dv=0 dx=0 dy=0 dh=0 dv=0
EndChar

StartChar: afii57688
Encoding: 1512 1512 66
Width: 570
VWidth: 0
GlyphClass: 2
Flags: HW
AnchorPoint: "LowNarrowNiqqud" 470 0 basechar 0
AnchorPoint: "LowWideNiqqud" 430 0 basechar 0
AnchorPoint: "HighNiqqud" 60 0 basechar 0
AnchorPoint: "Dagesh" 285 0 basechar 0
AnchorPoint: "Rafe" 285 0 basechar 0
LayerCount: 2
Fore
SplineSet
508.555 101.052 m 2
 508.844 77.207 510.731 38.21 510.326 33.6934 c 0
 509.582 25.4023 508.199 22.79 506.96 20.5127 c 0
 499.225 6.29395 452.18 -14.5117 446.228 -14.9209 c 0
 440.31 -15.3271 438.039 -4.74512 438.256 -0.640625 c 0
 440.095 34.2021 443.403 76.7451 443.357 115.544 c 2
 443.062 366.827 l 2
 443.037 388.547 435.444 475.436 362.842 478.815 c 0
 242.865 484.4 205.764 482.014 85.3271 479.736 c 0
 70.835 479.462 58.5781 484.885 60.1338 494.299 c 2
 78.4531 605.161 l 2
 79.1885 609.611 81.5352 612.168 85.1855 612.106 c 2
 97.835 611.894 l 2
 104.035 611.789 124.693 593.493 138.052 593.469 c 0
 202.434 593.352 247.933 592.172 295.944 591.023 c 0
 533.807 585.334 503.065 554.174 505.177 379.866 c 2
 508.555 101.052 l 2
EndSplineSet
PairPos2: "kernHorizontalKerning subtable" ellipsis dx=-25 dy=0 dh=-25 dv=0 dx=0 dy=0 dh=0 dv=0
PairPos2: "kernHorizontalKerning subtable" underscore dx=-25 dy=0 dh=-25 dv=0 dx=0 dy=0 dh=0 dv=0
PairPos2: "kernHorizontalKerning subtable" backslash dx=-25 dy=0 dh=-25 dv=0 dx=0 dy=0 dh=0 dv=0
PairPos2: "kernHorizontalKerning subtable" period dx=-25 dy=0 dh=-25 dv=0 dx=0 dy=0 dh=0 dv=0
PairPos2: "kernHorizontalKerning subtable" comma dx=-25 dy=0 dh=-25 dv=0 dx=0 dy=0 dh=0 dv=0
PairPos2: "kernHorizontalKerning subtable" afii57665 dx=-25 dy=0 dh=-25 dv=0 dx=0 dy=0 dh=0 dv=0
EndChar

StartChar: afii57689
Encoding: 1513 1513 67
Width: 740
VWidth: 0
GlyphClass: 2
Flags: HW
AnchorPoint: "LowNarrowNiqqud" 378 0 basechar 0
AnchorPoint: "LowWideNiqqud" 378 0 basechar 0
AnchorPoint: "HighNiqqud" 60 0 basechar 0
AnchorPoint: "Dagesh" 475 0 basechar 0
AnchorPoint: "Rafe" 378 0 basechar 0
LayerCount: 2
Fore
SplineSet
483.113 121.928 m 0
 531.713 151.183 570.246 215.33 586.802 343.064 c 0
 604.038 476.056 587.823 486.908 546.511 511.426 c 0
 538.097 516.42 534.441 525.859 539.533 535.572 c 2
 568.605 591.027 l 2
 576.205 605.523 587.74 607.863 602.331 600.696 c 0
 637.39 583.476 663.792 567.328 680.492 553.881 c 0
 721.651 520.741 665.524 517.154 659.014 428.798 c 0
 642.034 198.368 609.243 100.135 516.629 50.6475 c 0
 450.379 15.2471 208.78 -55.3252 160.242 39.6514 c 0
 123.572 111.407 96.0957 207.365 84.8604 290.138 c 0
 75.9238 355.977 78.666 362.571 91.4727 393.703 c 2
 117.508 456.991 l 2
 123.093 470.568 119.318 482.445 108.104 489.397 c 2
 68.3467 514.047 l 2
 59.7715 519.362 57.835 531.43 62.3945 540.199 c 2
 87.9502 589.355 l 2
 95.3066 603.506 106.218 606.591 116.515 602.176 c 0
 149.271 588.132 207.649 552.449 228.392 532.147 c 0
 235.974 524.726 254.232 509.963 246.312 497.623 c 2
 212.379 444.749 l 2
 201.271 427.44 195.821 443.692 176.524 446.716 c 0
 161.615 449.052 131.612 412.359 139.245 341.732 c 0
 147.636 264.092 164.033 183.623 199.265 119.834 c 0
 237.478 50.6475 419.88 83.8652 483.113 121.928 c 0
279.76 189.624 m 0
 292.928 226.104 309.377 267.353 320.73 308.581 c 0
 335.867 363.551 362.195 471.758 323.64 517.301 c 0
 317.12 525.001 313.109 534.672 317.659 543.447 c 0
 326.16 559.842 334.661 576.236 343.162 592.632 c 0
 350.503 606.79 361.466 610.013 371.712 605.482 c 0
 404.102 591.162 436.838 570.794 455.019 552.148 c 0
 462.425 544.552 479.854 525.242 467.554 511.066 c 0
 430.402 468.252 417.171 407.565 397.104 338.281 c 2
 376.387 266.745 l 2
 369.755 243.848 361.115 195.082 359.428 190.871 c 0
 356.324 183.131 354.146 181.105 352.391 179.22 c 0
 340.582 166.544 295.089 165.281 283.29 173.646 c 0
 278.43 177.092 278.368 185.767 279.76 189.624 c 0
EndSplineSet
EndChar

StartChar: afii57665
Encoding: 1489 1489 68
Width: 685
VWidth: 0
GlyphClass: 2
Flags: HW
AnchorPoint: "LowNarrowNiqqud" 342 0 basechar 0
AnchorPoint: "LowWideNiqqud" 342 0 basechar 0
AnchorPoint: "HighNiqqud" 60 0 basechar 0
AnchorPoint: "Dagesh" 310 0 basechar 0
AnchorPoint: "Rafe" 342 0 basechar 0
LayerCount: 2
Fore
SplineSet
346.33 583.961 m 0
 584.227 578.286 552.656 553.104 555.568 378.816 c 2
 558.516 202.415 l 1
 563.121 146.895 566.27 112.566 611.484 90.3262 c 0
 620.857 85.7148 624.641 83.1836 624.58 71.1846 c 2
 625.297 13.165 l 2
 625.254 4.69336 620.914 -2.49609 607.734 -2.02246 c 0
 551.914 -0.0166016 441.237 6.37793 357.515 5.13281 c 0
 277.167 3.93945 206.22 -1.24219 140.916 -4.97852 c 0
 67.1445 -9.19824 58.5117 -11.9541 60.1797 20.2422 c 2
 65.0459 85.9775 l 1
 64.5557 97.3867 75.7646 100.97 90.2334 100.54 c 0
 214.2 96.8604 342.405 96.7793 462.421 101.446 c 0
 498.017 102.831 493.808 193.729 493.765 215.446 c 2
 493.469 365.785 l 2
 493.426 387.502 485.832 476.4 413.236 479.785 c 0
 293.26 485.378 238.48 482.957 118.049 480.691 c 0
 103.576 480.419 91.3701 485.845 92.8613 495.254 c 0
 98.5088 529.635 104.497 563.935 111.168 598.128 c 0
 112.03 602.55 114.275 605.131 117.927 605.07 c 2
 130.563 604.863 l 2
 136.771 604.761 152.659 586.438 170.761 586.408 c 0
 235.689 586.302 298.338 585.1 346.33 583.961 c 0
EndSplineSet
PairPos2: "kernHorizontalKerning subtable" afii57687 dx=-25 dy=0 dh=-25 dv=0 dx=0 dy=0 dh=0 dv=0
PairPos2: "kernHorizontalKerning subtable" afii57682.fp dx=-25 dy=0 dh=-25 dv=0 dx=0 dy=0 dh=0 dv=0
PairPos2: "kernHorizontalKerning subtable" afii57682 dx=-25 dy=0 dh=-25 dv=0 dx=0 dy=0 dh=0 dv=0
PairPos2: "kernHorizontalKerning subtable" afii57668 dx=-25 dy=0 dh=-25 dv=0 dx=0 dy=0 dh=0 dv=0
PairPos2: "kernHorizontalKerning subtable" afii57667 dx=-25 dy=0 dh=-25 dv=0 dx=0 dy=0 dh=0 dv=0
PairPos2: "kernHorizontalKerning subtable" afii57673 dx=-25 dy=0 dh=-25 dv=0 dx=0 dy=0 dh=0 dv=0
EndChar

StartChar: afii57667
Encoding: 1491 1491 69
Width: 685
VWidth: 0
GlyphClass: 2
Flags: HW
AnchorPoint: "LowNarrowNiqqud" 510 0 basechar 0
AnchorPoint: "LowWideNiqqud" 480 0 basechar 0
AnchorPoint: "HighNiqqud" 60 0 basechar 0
AnchorPoint: "Dagesh" 310 0 basechar 0
AnchorPoint: "Rafe" 342 0 basechar 0
LayerCount: 2
Fore
SplineSet
77.9551 607.414 m 0
 78.7041 611.856 81.0635 614.417 84.7139 614.357 c 0
 88.9268 614.288 93.1387 614.219 97.3516 614.149 c 0
 103.559 614.047 124.211 596.252 137.549 595.694 c 0
 196.324 593.238 286.26 586.609 356.106 585.416 c 0
 439.827 583.984 551.005 587.732 606.825 589.738 c 0
 620.006 590.212 624.346 583.023 624.388 574.551 c 0
 624.502 551.613 624.617 524.676 624.731 501.738 c 0
 624.786 490.845 617.472 487.864 611.128 484.459 c 0
 602.287 479.714 593.447 474.969 584.606 470.223 c 0
 556.949 455.377 553.677 425.602 553.606 381.301 c 2
 553.169 104.395 l 2
 553.131 80.2803 560.79 40.8398 560.389 36.2695 c 0
 559.648 27.8672 558.246 25.2178 557.014 22.9258 c 0
 549.287 8.56641 492.123 -12.5029 486.169 -12.918 c 0
 480.226 -13.332 477.954 -2.62305 478.169 1.51953 c 0
 479.998 36.7803 487.849 70.6426 487.981 109.895 c 2
 488.856 368.27 l 2
 488.931 389.986 493.108 480.886 457.513 482.27 c 0
 337.498 486.938 205.757 485.442 85.3252 483.176 c 0
 70.8535 482.903 58.5547 488.345 60.1377 497.738 c 2
 60.1377 497.738 72.0166 572.188 77.9551 607.414 c 0
EndSplineSet
PairPos2: "kernHorizontalKerning subtable" ellipsis dx=-25 dy=0 dh=-25 dv=0 dx=0 dy=0 dh=0 dv=0
PairPos2: "kernHorizontalKerning subtable" underscore dx=-25 dy=0 dh=-25 dv=0 dx=0 dy=0 dh=0 dv=0
PairPos2: "kernHorizontalKerning subtable" backslash dx=-25 dy=0 dh=-25 dv=0 dx=0 dy=0 dh=0 dv=0
PairPos2: "kernHorizontalKerning subtable" period dx=-25 dy=0 dh=-25 dv=0 dx=0 dy=0 dh=0 dv=0
PairPos2: "kernHorizontalKerning subtable" comma dx=-25 dy=0 dh=-25 dv=0 dx=0 dy=0 dh=0 dv=0
PairPos2: "kernHorizontalKerning subtable" afii57665 dx=-25 dy=0 dh=-25 dv=0 dx=0 dy=0 dh=0 dv=0
EndChar

StartChar: afii57670
Encoding: 1494 1494 70
Width: 334
VWidth: 0
GlyphClass: 2
Flags: HW
AnchorPoint: "LowNarrowNiqqud" 155 0 basechar 0
AnchorPoint: "LowWideNiqqud" 155 0 basechar 0
AnchorPoint: "HighNiqqud" 60 0 basechar 0
AnchorPoint: "Dagesh" 55 0 basechar 0
AnchorPoint: "Rafe" 182 0 basechar 0
LayerCount: 2
Fore
SplineSet
302.123 465.361 m 2
 269.957 415.392 l 2
 261.37 402.053 247.984 417.729 230.618 417.63 c 0
 182.62 417.359 171.62 362.112 174.375 316.349 c 2
 186.874 108.726 l 2
 188.306 84.9297 193.994 40.3027 193.69 35.7754 c 0
 193.132 27.4551 191.781 24.8096 190.6 22.5195 c 0
 183.184 8.15625 137.34 -14.4062 131.396 -14.9463 c 0
 125.463 -15.4854 122.976 -4.94141 123.101 -0.841797 c 0
 124.17 34.0469 123.858 83.0615 121.4 121.787 c 2
 112.622 260.077 l 2
 107.612 339.012 104.317 340.183 119.942 363.974 c 2
 162.66 429.019 l 2
 171.459 442.415 164.723 455.82 153.558 462.851 c 2
 68.3369 516.512 l 2
 59.7998 521.888 57.8252 533.895 62.3848 542.664 c 2
 87.9414 591.821 l 2
 95.2979 605.972 106.206 609.05 116.505 604.642 c 0
 171.736 581 225.327 545.694 284.202 499.886 c 0
 292.575 493.371 310.06 477.69 302.123 465.361 c 2
EndSplineSet
EndChar

StartChar: afii57680
Encoding: 1504 1504 71
Width: 405
VWidth: 0
GlyphClass: 2
Flags: HW
AnchorPoint: "LowNarrowNiqqud" 210 0 basechar 0
AnchorPoint: "LowWideNiqqud" 210 0 basechar 0
AnchorPoint: "HighNiqqud" 85 0 basechar 0
AnchorPoint: "Dagesh" 190 0 basechar 0
AnchorPoint: "Rafe" 202 0 basechar 0
LayerCount: 2
Fore
SplineSet
246.243 92.4307 m 0
 261.027 91.459 266.21 103.704 266.29 139.183 c 2
 266.581 268.114 l 2
 266.692 317.466 264.782 335.968 262.54 383.554 c 0
 260.908 418.163 243.279 451.496 214.25 469.037 c 2
 136.644 515.929 l 2
 128.009 521.146 126.133 533.312 130.691 542.081 c 2
 156.248 591.238 l 2
 163.604 605.389 174.513 608.467 184.812 604.059 c 0
 240.044 580.417 269.349 560.826 328.223 515.018 c 0
 336.597 508.502 347.458 495.367 344.918 480.926 c 0
 342.726 468.464 331.291 380.828 331.338 308.697 c 2
 331.464 117.613 l 2
 331.479 93.7754 336.678 25.1289 337.408 16.918 c 0
 338.557 4.01172 333.305 0.169922 325.41 0.472656 c 0
 316.953 0.797852 250.733 1.71973 206.278 0.65332 c 0
 159.064 -0.479492 124.181 -3.44922 72.1631 -6.47656 c 0
 62.6016 -7.0332 58.8975 0.182617 60.2793 9.00195 c 2
 72.291 85.6758 l 2
 73.1641 91.2461 77.8506 103.499 101.299 101.958 c 0
 149.614 98.7822 197.929 95.6064 246.243 92.4307 c 0
EndSplineSet
PairPos2: "kernHorizontalKerning subtable" afii57687 dx=-25 dy=0 dh=-25 dv=0 dx=0 dy=0 dh=0 dv=0
PairPos2: "kernHorizontalKerning subtable" afii57682.fp dx=-25 dy=0 dh=-25 dv=0 dx=0 dy=0 dh=0 dv=0
PairPos2: "kernHorizontalKerning subtable" afii57682 dx=-25 dy=0 dh=-25 dv=0 dx=0 dy=0 dh=0 dv=0
PairPos2: "kernHorizontalKerning subtable" afii57668 dx=-25 dy=0 dh=-25 dv=0 dx=0 dy=0 dh=0 dv=0
PairPos2: "kernHorizontalKerning subtable" afii57667 dx=-25 dy=0 dh=-25 dv=0 dx=0 dy=0 dh=0 dv=0
PairPos2: "kernHorizontalKerning subtable" afii57673 dx=-25 dy=0 dh=-25 dv=0 dx=0 dy=0 dh=0 dv=0
EndChar

StartChar: afii57664
Encoding: 1488 1488 72
Width: 662
VWidth: 0
GlyphClass: 2
Flags: HW
AnchorPoint: "LowNarrowNiqqud" 338 0 basechar 0
AnchorPoint: "LowWideNiqqud" 338 0 basechar 0
AnchorPoint: "HighNiqqud" 60 0 basechar 0
AnchorPoint: "Dagesh" 265 -80 basechar 0
AnchorPoint: "Rafe" 338 0 basechar 0
LayerCount: 2
Fore
SplineSet
474.83 241.906 m 0
 468.851 236.265 466.306 226.776 470.92 220.943 c 0
 507.016 175.314 542.584 139.976 581.231 101.829 c 0
 587.229 95.9102 588.831 68.9277 588.29 52.8652 c 0
 587.58 31.7617 583.846 13.0234 576.905 -6.18652 c 0
 573.686 -15.0977 554.653 -14.9736 544.834 -2.58398 c 0
 406.664 171.762 310.544 286.025 198.784 396.514 c 0
 190.938 404.271 184.442 406.718 181.947 394.782 c 0
 165.595 316.563 161.79 274.047 156.299 197.261 c 0
 153.293 155.219 153.277 106.603 190.947 103.05 c 0
 221.038 100.212 251.129 97.375 281.219 94.5371 c 0
 291.264 93.5898 298.239 83.4482 297.943 73.5684 c 0
 297.391 55.1094 296.838 36.6494 296.285 18.1904 c 0
 295.808 2.24902 287.32 -5.26367 276.129 -5.76855 c 0
 216.111 -8.47363 155.618 -6.09766 108.273 3.54395 c 0
 97.877 5.66113 87.4473 14.3838 83.46 28.4941 c 0
 81.4326 35.668 86.4951 96.5488 93.54 155.965 c 0
 103.836 242.799 108.828 309.83 117.066 410.084 c 0
 121.782 467.478 118.889 479.432 63.3633 531.616 c 0
 55.5938 538.918 62.9229 550.263 68.8799 558.227 c 0
 79.2109 572.038 102.241 593.124 118.504 603.26 c 0
 127.699 608.99 140.052 611.721 148.146 600.783 c 0
 230.647 489.296 288.711 423.14 415.957 281.003 c 0
 425.175 270.706 437.511 273.789 445.92 284.05 c 0
 489.018 336.637 538.535 390.291 487.578 445.291 c 2
 406.857 532.416 l 2
 400.001 539.817 401.642 552.049 408.478 559.188 c 0
 421.249 572.528 434.021 585.867 446.792 599.207 c 0
 457.821 610.727 469.155 610.623 477.806 603.504 c 0
 524.191 565.324 566.205 517.947 609.873 457.468 c 0
 616.084 448.866 621.017 433.413 613.284 420.955 c 0
 571.485 353.609 519.262 283.823 474.83 241.906 c 0
EndSplineSet
EndChar

StartChar: afii57671
Encoding: 1495 1495 73
Width: 651
VWidth: 0
GlyphClass: 2
Flags: HW
AnchorPoint: "LowNarrowNiqqud" 326 0 basechar 0
AnchorPoint: "LowWideNiqqud" 326 0 basechar 0
AnchorPoint: "HighNiqqud" 60 0 basechar 0
AnchorPoint: "Dagesh" 340 -40 basechar 0
AnchorPoint: "Rafe" 326 0 basechar 0
LayerCount: 2
Fore
SplineSet
161.98 388.281 m 0
 158.603 267.732 162.642 146.905 165.599 26.6416 c 0
 165.804 18.3047 163.451 15.7188 162.22 13.4561 c 0
 154.492 -0.742188 99.249 -21.5713 93.2949 -21.9814 c 0
 87.3516 -22.3906 85.0947 -11.7949 85.3096 -7.7002 c 0
 87.1377 27.1572 89.3779 69.7207 91.0459 108.488 c 0
 95.8135 219.283 100.581 330.078 105.349 440.874 c 0
 106.896 476.829 57.1885 478.663 60.125 495.795 c 0
 66.2314 531.416 77.8359 599.491 78.4443 602.657 c 0
 79.2949 607.086 81.5264 609.664 85.1768 609.603 c 2
 97.8262 609.39 l 2
 104.026 609.285 124.685 590.988 138.043 590.965 c 0
 202.425 590.847 328.565 589.668 376.577 588.52 c 0
 614.439 582.829 583.697 553.669 585.81 379.362 c 0
 586.936 286.424 588.062 193.486 589.188 100.548 c 0
 589.477 76.7031 591.364 37.7061 590.959 33.1895 c 0
 590.215 24.8984 588.832 22.2852 587.593 20.0088 c 0
 579.856 5.79004 532.812 -15.0156 526.86 -15.4248 c 0
 520.941 -15.8311 518.672 -5.25 518.888 -1.14551 c 0
 520.727 33.6973 524.036 76.2402 523.99 115.04 c 0
 523.893 198.801 523.794 282.562 523.695 366.322 c 0
 523.67 388.043 516.042 476.257 443.475 480.311 c 0
 358.34 485.067 284.631 488.174 218.265 480.546 c 0
 182.316 476.414 163.735 450.903 161.98 388.281 c 0
EndSplineSet
Substitution2: "Single Substitution lookup 3 subtable" afii57671.fp
EndChar

StartChar: afii57686
Encoding: 1510 1510 74
Width: 629
VWidth: 0
GlyphClass: 2
Flags: HW
AnchorPoint: "LowNarrowNiqqud" 314 0 basechar 0
AnchorPoint: "LowWideNiqqud" 314 0 basechar 0
AnchorPoint: "HighNiqqud" 60 0 basechar 0
AnchorPoint: "Dagesh" 200 -100 basechar 0
AnchorPoint: "Rafe" 314 0 basechar 0
LayerCount: 2
Fore
SplineSet
410.458 100.017 m 0
 430.726 100.456 424.389 108.044 413.964 116.507 c 2
 208.492 283.289 l 2
 147.934 332.444 160.08 355.979 180.352 412.928 c 2
 194.754 453.389 l 2
 198.896 465.025 201.593 476.714 188.939 480.454 c 0
 145.426 493.316 120.159 498.346 74.1182 507.311 c 0
 64.2158 509.238 58.6875 520.521 60.2676 530.278 c 0
 63.2197 548.509 66.1729 566.739 69.125 584.969 c 0
 71.6748 600.712 81.0537 607.687 92.2158 606.729 c 0
 152.074 601.595 189.279 592.916 256.089 567.297 c 0
 268.044 562.713 289.705 552.378 282.644 539.527 c 0
 257.124 493.091 239.095 448.876 228.319 420.763 c 0
 211.829 377.738 231.898 345.901 267.431 316.875 c 0
 323.259 271.271 349.756 273.195 393.332 314.299 c 0
 450.295 368.029 494.107 415.016 458.181 446.174 c 0
 428.613 471.816 399.046 497.459 369.479 523.102 c 0
 361.857 529.712 362.107 542.031 368.105 549.888 c 0
 379.311 564.567 390.517 579.247 401.722 593.927 c 0
 411.398 606.604 422.674 607.764 432.063 601.652 c 0
 482.415 568.88 507.921 544.548 558.057 489.311 c 0
 565.188 481.455 572.872 466.09 565.516 453.406 c 0
 508.013 354.26 468.54 314.155 388.637 242.717 c 0
 377.866 233.087 388.219 219.491 405.279 205.657 c 2
 485.327 140.749 l 2
 504.191 125.452 517.001 115.85 527.331 106.505 c 0
 533.516 100.911 535.164 95.0596 535.935 91.3809 c 0
 539.25 75.5596 524.253 30.9678 520.497 22.334 c 0
 515.716 11.3418 509.252 0.87793 495.685 1.41992 c 0
 437.706 3.7334 412.355 3.84082 351.975 2.80859 c 0
 282.127 1.61426 204.646 -1.53711 145.869 -3.96973 c 0
 104.823 -5.66895 76.1963 -8.69824 78.9297 7.81055 c 0
 83.2734 34.0352 91.959 86.4863 91.959 86.4863 c 2
 93.9658 98.6045 102.674 101.321 117.146 101.049 c 0
 216.119 99.1865 312.839 97.8975 410.458 100.017 c 0
EndSplineSet
EndChar

StartChar: afii57674
Encoding: 1498 1498 75
Width: 685
VWidth: 0
GlyphClass: 2
Flags: HW
AnchorPoint: "LowNarrowNiqqud" 300 360 basechar 0
AnchorPoint: "LowWideNiqqud" 300 360 basechar 0
AnchorPoint: "HighNiqqud" 60 0 basechar 0
AnchorPoint: "Dagesh" 300 0 basechar 0
AnchorPoint: "Rafe" 342 0 basechar 0
LayerCount: 2
Fore
SplineSet
553.592 380.729 m 2
 555.287 -52.8174 l 2
 555.293 -76.6562 562.115 -167.151 562.115 -167.151 c 1
 561.375 -175.458 559.693 -177.944 558.736 -180.337 c 0
 550.744 -194.387 498.936 -215.364 492.98 -215.774 c 0
 487.037 -216.184 484.999 -205.594 484.994 -201.493 c 0
 487.038 -166.646 490.08 -114.512 490.112 -75.708 c 2
 488.842 367.698 l 2
 488.915 389.415 493.094 480.313 457.498 481.698 c 0
 337.483 486.365 205.742 484.87 85.3105 482.604 c 0
 70.8389 482.332 58.6328 487.758 60.123 497.167 c 2
 77.9404 606.843 l 2
 78.6631 611.29 81.0488 613.846 84.6992 613.785 c 2
 97.3359 613.578 l 2
 103.544 613.476 124.195 595.681 137.534 595.123 c 0
 196.31 592.667 286.245 586.038 356.092 584.844 c 0
 439.812 583.413 550.99 587.161 606.811 589.167 c 0
 619.99 589.641 624.334 582.451 624.373 573.979 c 2
 624.717 501.167 l 2
 624.77 490.273 617.457 487.293 611.113 483.888 c 2
 584.592 469.651 l 2
 556.936 454.805 553.666 425.03 553.592 380.729 c 2
EndSplineSet
PairPos2: "kernHorizontalKerning subtable" ellipsis dx=-25 dy=0 dh=-25 dv=0 dx=0 dy=0 dh=0 dv=0
PairPos2: "kernHorizontalKerning subtable" underscore dx=-25 dy=0 dh=-25 dv=0 dx=0 dy=0 dh=0 dv=0
PairPos2: "kernHorizontalKerning subtable" backslash dx=-25 dy=0 dh=-25 dv=0 dx=0 dy=0 dh=0 dv=0
PairPos2: "kernHorizontalKerning subtable" period dx=-25 dy=0 dh=-25 dv=0 dx=0 dy=0 dh=0 dv=0
PairPos2: "kernHorizontalKerning subtable" comma dx=-25 dy=0 dh=-25 dv=0 dx=0 dy=0 dh=0 dv=0
PairPos2: "kernHorizontalKerning subtable" afii57665 dx=-25 dy=0 dh=-25 dv=0 dx=0 dy=0 dh=0 dv=0
EndChar

StartChar: afii57669
Encoding: 1493 1493 76
Width: 337
VWidth: 0
GlyphClass: 2
Flags: HW
AnchorPoint: "LowNarrowNiqqud" 220 0 basechar 0
AnchorPoint: "LowWideNiqqud" 200 0 basechar 0
AnchorPoint: "HighNiqqud" 60 0 basechar 0
AnchorPoint: "Dagesh" 130 0 basechar 0
AnchorPoint: "Rafe" 168 0 basechar 0
LayerCount: 2
Fore
SplineSet
192.889 1.0791 m 0
 194.717 35.9365 197.931 84.4639 198.007 123.268 c 2
 198.298 272.518 l 2
 198.394 321.869 196.498 340.372 194.256 387.957 c 0
 192.625 422.566 175.069 455.855 145.966 473.44 c 2
 68.3604 520.333 l 2
 59.7256 525.55 57.8486 537.716 62.4082 546.485 c 2
 87.9639 595.642 l 2
 95.3213 609.792 106.229 612.871 116.528 608.462 c 0
 171.76 584.821 201.064 565.229 259.939 519.421 c 0
 268.313 512.905 279.174 499.771 276.634 485.33 c 0
 274.442 472.868 263.011 385.232 263.055 313.102 c 2
 263.18 108.782 l 2
 263.194 84.9434 265.36 39.9395 264.958 35.4199 c 0
 264.219 27.1133 262.811 24.498 261.579 22.2344 c 0
 253.852 8.03711 206.829 -12.792 200.875 -13.2031 c 0
 194.932 -13.6123 192.674 -3.0166 192.889 1.0791 c 0
EndSplineSet
PairPos2: "kernHorizontalKerning subtable" ellipsis dx=-25 dy=0 dh=-25 dv=0 dx=0 dy=0 dh=0 dv=0
PairPos2: "kernHorizontalKerning subtable" underscore dx=-25 dy=0 dh=-25 dv=0 dx=0 dy=0 dh=0 dv=0
PairPos2: "kernHorizontalKerning subtable" backslash dx=-25 dy=0 dh=-25 dv=0 dx=0 dy=0 dh=0 dv=0
PairPos2: "kernHorizontalKerning subtable" period dx=-25 dy=0 dh=-25 dv=0 dx=0 dy=0 dh=0 dv=0
PairPos2: "kernHorizontalKerning subtable" comma dx=-25 dy=0 dh=-25 dv=0 dx=0 dy=0 dh=0 dv=0
PairPos2: "kernHorizontalKerning subtable" afii57665 dx=-25 dy=0 dh=-25 dv=0 dx=0 dy=0 dh=0 dv=0
EndChar

StartChar: uniFB4F
Encoding: 64335 64335 77
Width: 703
VWidth: 0
GlyphClass: 2
Flags: HW
AnchorPoint: "LowNarrowNiqqud" 352 0 basechar 0
AnchorPoint: "LowWideNiqqud" 352 0 basechar 0
AnchorPoint: "HighNiqqud" 60 0 basechar 0
AnchorPoint: "Dagesh" 280 -60 basechar 0
AnchorPoint: "Rafe" 352 0 basechar 0
LayerCount: 2
Fore
SplineSet
97.4443 517.759 m 0
 93.0869 521.661 91.0508 525.637 91.792 532.691 c 0
 95.7021 569.897 96.7256 599.281 96.8125 627.241 c 2
 97.0312 698.114 l 2
 97.1797 746.337 87.9297 789.282 66.1562 826.864 c 0
 62.0898 833.883 57.709 840.812 61.375 847.864 c 0
 64.6865 854.233 78.749 878.399 84.374 888.391 c 0
 92.1279 902.162 99.1738 905.943 108.906 901.708 c 0
 120.848 896.51 150.101 876.566 160.969 867.302 c 0
 167.46 861.768 181.095 851.153 174.375 839.896 c 0
 149.34 797.954 149.035 784.19 149.094 730.739 c 2
 149.188 645.232 l 2
 149.224 612.187 164.773 592.252 174.227 580.926 c 0
 267.58 469.076 310.771 420.272 440.038 279.146 c 0
 449.372 268.954 463.591 271.932 472.001 282.192 c 0
 515.099 334.779 564.616 388.435 513.659 443.434 c 0
 486.752 472.476 459.845 501.518 432.938 530.56 c 0
 426.081 537.96 427.723 550.192 434.558 557.331 c 0
 447.33 570.671 460.102 584.011 472.873 597.35 c 0
 483.902 608.869 495.236 608.767 503.886 601.646 c 0
 550.272 563.467 592.285 516.09 635.953 455.61 c 0
 642.164 447.009 647.097 431.557 639.365 419.098 c 0
 597.566 351.752 545.342 281.966 500.911 240.049 c 0
 494.932 234.408 492.387 224.919 497.001 219.086 c 0
 533.097 173.457 568.665 138.118 607.312 99.9727 c 0
 613.31 94.0537 614.912 67.0703 614.371 51.0088 c 0
 613.66 29.9053 609.927 11.167 602.986 -8.04297 c 0
 599.767 -16.9551 580.734 -16.8311 570.915 -4.44141 c 0
 468.827 124.376 392.003 215.519 313.287 302.495 c 0
 244.697 378.282 179.59 444.197 97.4443 517.759 c 0
EndSplineSet
EndChar

StartChar: uniFB20
Encoding: 64288 64288 78
Width: 710
VWidth: 0
GlyphClass: 2
Flags: HW
AnchorPoint: "LowNarrowNiqqud" 355 0 basechar 0
AnchorPoint: "LowWideNiqqud" 355 0 basechar 0
AnchorPoint: "HighNiqqud" 60 0 basechar 0
AnchorPoint: "Dagesh" 435 20 basechar 0
AnchorPoint: "Rafe" 355 0 basechar 0
LayerCount: 2
Fore
SplineSet
257.571 93.582 m 0
 295.775 99.5713 303.71 103.823 289.17 179.548 c 2
 262.388 319.033 l 2
 250.551 380.681 229.837 468.243 173.347 481 c 2
 95.6465 498.547 l 2
 85.8057 500.77 80.2725 511.824 81.8945 521.574 c 2
 90.9863 576.227 l 2
 93.6035 591.958 103.023 598.261 114.182 597.256 c 0
 174.018 591.865 228.149 578.262 267.499 559.99 c 0
 277.122 555.521 297.066 547.355 295.924 532.737 c 0
 291.61 477.575 297.771 439.652 312.404 369.021 c 2
 349.621 189.388 l 2
 363.206 123.815 359.719 110.338 396.502 118.009 c 0
 430.36 125.069 449.603 129.612 476.092 142.87 c 0
 514.883 162.286 527.8 195.055 552.451 350.83 c 0
 564.395 426.302 542.081 473.797 509.532 483.634 c 2
 422.736 509.865 l 2
 413.079 512.784 408.251 524.107 410.499 533.732 c 2
 423.098 587.684 l 2
 426.724 603.215 436.531 608.896 447.602 607.174 c 0
 506.965 597.934 570.681 579.146 622.87 552.813 c 0
 643.43 542.439 654.948 532.629 648.268 516.154 c 0
 629.899 470.861 619.806 424.534 614.261 389.637 c 0
 570.921 116.88 572.107 97.2578 474.894 58.2969 c 0
 374.051 17.8818 206.861 -10.7051 67.8457 -10.7051 c 0
 63.083 -10.7051 57.9961 -6.8291 60.8018 7.84863 c 2
 73.3311 73.3994 l 2
 74.9551 81.8965 80.1973 88.041 94.8057 87.2109 c 0
 142.311 84.5107 202.554 84.957 257.571 93.582 c 0
EndSplineSet
EndChar

StartChar: afii57678
Encoding: 1502 1502 79
Width: 682
VWidth: 0
GlyphClass: 2
Flags: HW
AnchorPoint: "LowNarrowNiqqud" 341 0 basechar 0
AnchorPoint: "LowWideNiqqud" 341 0 basechar 0
AnchorPoint: "HighNiqqud" 75 0 basechar 0
AnchorPoint: "Dagesh" 380 0 basechar 0
AnchorPoint: "Rafe" 341 0 basechar 0
LayerCount: 2
Fore
SplineSet
231.238 509.484 m 0
 237.004 499.497 247.663 500.786 259.371 518.925 c 0
 274.364 542.155 289.358 565.386 304.353 588.617 c 0
 314.102 603.722 340.011 606.261 372.381 601.239 c 0
 430.802 592.177 493.198 572 541.343 549.548 c 0
 651.473 498.188 616.067 495.374 617.289 387.789 c 2
 619.423 199.801 l 2
 621.326 32.1729 625.691 -4.28711 562.855 -1.70312 c 0
 521.979 -0.0214844 505.805 0.71875 445.423 -0.313477 c 0
 388.563 -1.28613 338.491 -4.31055 293.908 -7.09277 c 0
 252.906 -9.65039 224.234 -11.8203 226.969 4.6875 c 0
 231.312 30.9131 239.997 83.3633 239.997 83.3633 c 2
 242.004 95.4814 250.719 98.4424 265.185 97.9258 c 0
 367.584 94.2686 419.711 94.8027 523.329 98.832 c 0
 558.925 100.217 554.675 191.115 554.673 212.832 c 2
 554.673 212.832 554.664 312.298 554.66 362.03 c 0
 554.654 431.268 520.518 450.673 457.567 469.697 c 0
 378.368 493.633 347.288 494.036 293.95 481.533 c 0
 231.303 466.847 206.737 379.775 192.284 303.273 c 0
 178.132 228.359 163.979 153.444 149.826 78.5303 c 0
 145.401 55.1064 141.026 21.8984 139.758 17.543 c 0
 137.426 9.53613 135.539 7.24219 133.893 5.25977 c 0
 123.566 -7.17676 71.4629 -8.01074 65.542 -7.26172 c 0
 59.6309 -6.51465 59.4648 4.31738 60.4668 8.29395 c 0
 69 42.1406 81.4834 67.2129 88.6836 105.343 c 0
 99.4229 162.221 110.163 219.098 120.902 275.976 c 0
 131.193 330.475 162.748 428.992 125.441 475.534 c 0
 113.145 490.873 100.849 506.213 88.5527 521.553 c 0
 81.3896 530.49 76.0107 536.57 87.7695 548.363 c 0
 101.616 562.249 115.463 576.136 129.31 590.022 c 0
 142.243 602.993 150.263 607.039 163.849 594.25 c 0
 193.524 566.315 209.633 546.905 231.238 509.484 c 0
EndSplineSet
PairPos2: "kernHorizontalKerning subtable" afii57687 dx=-25 dy=0 dh=-25 dv=0 dx=0 dy=0 dh=0 dv=0
PairPos2: "kernHorizontalKerning subtable" afii57682.fp dx=-25 dy=0 dh=-25 dv=0 dx=0 dy=0 dh=0 dv=0
PairPos2: "kernHorizontalKerning subtable" afii57682 dx=-25 dy=0 dh=-25 dv=0 dx=0 dy=0 dh=0 dv=0
PairPos2: "kernHorizontalKerning subtable" afii57668 dx=-25 dy=0 dh=-25 dv=0 dx=0 dy=0 dh=0 dv=0
PairPos2: "kernHorizontalKerning subtable" afii57667 dx=-25 dy=0 dh=-25 dv=0 dx=0 dy=0 dh=0 dv=0
PairPos2: "kernHorizontalKerning subtable" afii57673 dx=-25 dy=0 dh=-25 dv=0 dx=0 dy=0 dh=0 dv=0
EndChar

StartChar: afii57666
Encoding: 1490 1490 80
Width: 455
VWidth: 0
GlyphClass: 2
Flags: HW
AnchorPoint: "LowNarrowNiqqud" 228 0 basechar 0
AnchorPoint: "LowWideNiqqud" 228 0 basechar 0
AnchorPoint: "HighNiqqud" 85 0 basechar 0
AnchorPoint: "Dagesh" 185 30 basechar 0
AnchorPoint: "Rafe" 228 0 basechar 0
LayerCount: 2
Fore
SplineSet
234.023 190.207 m 0
 253.461 206.287 283.023 230.392 280.527 246.004 c 2
 257.825 387.957 l 2
 252.354 422.171 238.64 455.855 209.536 473.44 c 0
 183.667 489.071 131.93 520.333 131.93 520.333 c 2
 123.295 525.55 121.419 537.716 125.978 546.485 c 2
 151.534 595.642 l 2
 158.891 609.792 169.799 612.871 180.099 608.462 c 0
 235.329 584.821 264.635 565.229 323.509 519.421 c 0
 331.883 512.905 342.744 499.771 340.204 485.33 c 0
 338.012 472.868 322.388 386.526 334.226 315.374 c 2
 368.367 110.171 l 2
 373.081 81.8408 394.738 27.9805 395.094 22.4502 c 0
 395.629 14.1289 392.946 11.5283 391.715 9.26562 c 0
 383.987 -4.93262 324.301 -3.37109 318.22 -3.02441 c 0
 312.272 -2.68457 309.601 5.29102 310.234 12.6465 c 0
 311.702 29.6973 311.037 48.9658 308.129 68.2832 c 2
 296.733 143.973 l 2
 295.445 152.527 289.996 155.049 279.279 142.438 c 0
 221.308 74.2256 195.144 48.1221 132.047 -4.20508 c 0
 124.771 -10.2393 115.018 -10.6133 108.142 -3.07324 c 0
 86.4434 20.7217 74.7119 38.2061 61.6953 64.5547 c 0
 58.3027 71.4219 59.6641 80.2393 68.8633 85.0254 c 0
 126.031 114.762 198.602 160.904 234.023 190.207 c 0
EndSplineSet
PairPos2: "kernHorizontalKerning subtable" afii57673 dx=-25 dy=0 dh=-25 dv=0 dx=0 dy=0 dh=0 dv=0
EndChar

StartChar: afii57683
Encoding: 1507 1507 81
Width: 575
VWidth: 0
GlyphClass: 2
Flags: HW
AnchorPoint: "LowNarrowNiqqud" 288 0 basechar 0
AnchorPoint: "LowWideNiqqud" 288 0 basechar 0
AnchorPoint: "HighNiqqud" 60 0 basechar 0
AnchorPoint: "Dagesh" 350 -10 basechar 0
AnchorPoint: "Rafe" 288 0 basechar 0
LayerCount: 2
Fore
SplineSet
437.854 -200.867 m 0
 440.78 -147.079 443.454 -126.66 443.455 -70.2852 c 2
 443.456 362.696 l 2
 443.456 430.435 402.193 452.647 313.363 473.898 c 0
 269.016 484.508 230.927 489.859 184.315 491.093 c 0
 160.244 491.729 160.101 491.718 152.917 469.832 c 0
 137.69 423.44 130.546 386.958 183.465 366.734 c 2
 183.465 366.734 235.422 346.879 261.4 336.95 c 0
 270.824 333.349 274.977 321.84 272.138 312.373 c 0
 266.834 294.683 261.529 276.993 256.226 259.304 c 0
 251.645 244.027 241.431 238.646 230.562 241.368 c 0
 172.387 255.939 126.352 274.039 80.1016 300.251 c 0
 70.8711 305.482 57.3545 316.882 60.4512 331.214 c 0
 73.4854 391.526 82.6338 422.549 95.9971 462.932 c 0
 98.3467 470.032 98.9775 488.94 79.8154 492.33 c 0
 71.4658 493.807 63.8506 497.225 65.1582 506.66 c 0
 69.5752 538.542 74.3525 570.39 77.7031 602.41 c 0
 78.1719 606.896 80.7852 609.417 84.4346 609.355 c 2
 97.085 609.143 l 2
 103.285 609.038 120.407 590.778 136.134 590.678 c 0
 244.732 589.979 337.884 577.62 430.139 546.713 c 0
 539.317 510.137 505.661 496.046 506.084 388.455 c 2
 507.803 -48.7559 l 2
 507.91 -76.0303 515.377 -162.007 514.975 -166.525 c 0
 514.235 -174.832 512.827 -177.447 511.596 -179.711 c 0
 503.868 -193.909 451.795 -214.738 445.841 -215.148 c 0
 439.897 -215.558 437.632 -204.961 437.854 -200.867 c 0
EndSplineSet
PairPos2: "kernHorizontalKerning subtable" ellipsis dx=-25 dy=0 dh=-25 dv=0 dx=0 dy=0 dh=0 dv=0
PairPos2: "kernHorizontalKerning subtable" underscore dx=-25 dy=0 dh=-25 dv=0 dx=0 dy=0 dh=0 dv=0
PairPos2: "kernHorizontalKerning subtable" backslash dx=-25 dy=0 dh=-25 dv=0 dx=0 dy=0 dh=0 dv=0
PairPos2: "kernHorizontalKerning subtable" period dx=-25 dy=0 dh=-25 dv=0 dx=0 dy=0 dh=0 dv=0
PairPos2: "kernHorizontalKerning subtable" comma dx=-25 dy=0 dh=-25 dv=0 dx=0 dy=0 dh=0 dv=0
PairPos2: "kernHorizontalKerning subtable" afii57665 dx=-25 dy=0 dh=-25 dv=0 dx=0 dy=0 dh=0 dv=0
EndChar

StartChar: afii57687
Encoding: 1511 1511 82
Width: 580
VWidth: 0
GlyphClass: 2
Flags: HW
AnchorPoint: "LowNarrowNiqqud" 330 0 basechar 0
AnchorPoint: "LowWideNiqqud" 370 0 basechar 0
AnchorPoint: "HighNiqqud" 60 0 basechar 0
AnchorPoint: "Dagesh" 300 50 basechar 0
AnchorPoint: "Rafe" 290 0 basechar 0
LayerCount: 2
Fore
SplineSet
128.773 255.342 m 2
 128.396 277.437 155.612 316.981 170.543 318.881 c 0
 175.479 319.509 178.313 318.123 178.751 310.014 c 2
 200.42 -91.4609 l 2
 201.704 -115.265 206.034 -158.611 206.034 -158.611 c 2
 205.77 -166.946 204.23 -169.525 203.412 -171.967 c 0
 196.233 -186.451 150.747 -210.058 144.826 -210.807 c 0
 138.916 -211.555 136.272 -201.099 136.039 -197.004 c 0
 136.093 -162.099 135.19 -119.511 134.526 -80.7129 c 2
 128.773 255.342 l 2
60.1641 497.871 m 0
 66.5381 532.052 72.9121 572.232 79.2871 606.414 c 0
 80.1123 610.843 82.3945 613.416 86.0459 613.356 c 0
 90.2578 613.287 94.4697 613.218 98.6826 613.148 c 0
 110.488 612.955 126.22 595.344 142.887 595.04 c 0
 159.411 594.74 257.785 593.742 305.795 592.596 c 0
 549.342 586.779 506.922 559.503 515.742 391.52 c 2
 519.469 320.56 l 2
 520.285 305.015 519.301 288.646 508.432 272.403 c 0
 463.148 204.72 391.928 127.218 322.957 75.5596 c 0
 317.707 71.627 311.445 71.8711 307.58 76.2158 c 0
 299.662 85.1152 295.029 133.673 296.117 143.848 c 0
 296.748 149.746 297.234 154.588 303.719 159.256 c 0
 352.629 194.47 406.902 242.62 446.102 293.276 c 0
 451.701 300.511 456.609 307.875 456.055 320.437 c 2
 453.629 375.449 l 2
 452.672 397.149 445.297 479.008 372.693 482.387 c 0
 252.717 487.972 205.794 485.586 85.3574 483.309 c 0
 70.8652 483.034 58.415 488.491 60.1641 497.871 c 0
EndSplineSet
PairPos2: "kernHorizontalKerning subtable" afii57682.fp dx=-25 dy=0 dh=-25 dv=0 dx=0 dy=0 dh=0 dv=0
PairPos2: "kernHorizontalKerning subtable" afii57682 dx=-25 dy=0 dh=-25 dv=0 dx=0 dy=0 dh=0 dv=0
EndChar

StartChar: afii57679
Encoding: 1503 1503 83
Width: 333
VWidth: 0
GlyphClass: 2
Flags: HW
AnchorPoint: "LowNarrowNiqqud" 176 0 basechar 0
AnchorPoint: "LowWideNiqqud" 176 0 basechar 0
AnchorPoint: "HighNiqqud" 60 0 basechar 0
AnchorPoint: "Dagesh" 176 0 basechar 0
AnchorPoint: "Rafe" 176 0 basechar 0
LayerCount: 2
Fore
SplineSet
290.496 474.346 m 0
 262.374 437.262 240.443 400.963 220.378 362.782 c 0
 209.9 342.847 204.757 336.883 206.169 294.091 c 2
 218.787 -88.2363 l 2
 219.573 -112.062 222.032 -155.544 222.032 -155.544 c 2
 221.474 -163.864 219.846 -166.387 218.941 -168.8 c 0
 211.257 -183.021 164.968 -205.012 159.023 -205.551 c 0
 153.091 -206.09 150.817 -195.547 150.729 -191.447 c 0
 152.012 -156.565 153.192 -113.979 153.313 -75.1748 c 2
 154.298 241.213 l 2
 154.512 310.215 149.886 336.277 159.587 350.665 c 2
 203.916 416.413 l 2
 207.689 422.011 207.58 432.217 196.738 439.735 c 0
 159.45 465.591 109.493 495.572 68.0801 517.598 c 1
 59.8428 523.422 57.9902 534.774 62.1279 543.75 c 2
 87.6846 592.907 l 2
 94.6729 607.243 105.949 610.136 116.249 605.728 c 0
 171.479 582.086 214.927 554.245 273.802 508.437 c 0
 282.176 501.921 299.356 486.028 290.496 474.346 c 0
EndSplineSet
EndChar

StartChar: afii57672
Encoding: 1496 1496 84
Width: 660
VWidth: 0
GlyphClass: 2
Flags: HW
AnchorPoint: "LowNarrowNiqqud" 330 0 basechar 0
AnchorPoint: "LowWideNiqqud" 330 0 basechar 0
AnchorPoint: "HighNiqqud" 60 0 basechar 0
AnchorPoint: "Dagesh" 330 0 basechar 0
AnchorPoint: "Rafe" 330 0 basechar 0
LayerCount: 2
Fore
SplineSet
452.454 119.843 m 0
 481.355 136.976 531.658 182.435 533.061 309.159 c 0
 534.547 443.255 519.613 457.554 478.376 472.364 c 0
 453.61 481.26 420.487 469.599 406.714 448.006 c 0
 400.93 438.939 397.857 433.433 389.539 437.51 c 2
 374.217 445.02 l 2
 364.655 449.707 363.986 454.413 366.776 461.096 c 0
 381.895 497.316 401.037 532.531 426.915 566.062 c 0
 436.95 579.063 455.482 584.974 480.579 578.054 c 0
 637.014 534.921 595.086 511.61 595.678 390.606 c 0
 596.799 160.954 578.584 98.0498 485.97 48.5615 c 0
 419.721 13.1621 218.426 -57.4102 169.889 37.5664 c 0
 133.218 109.322 105.012 199.628 94.5068 282.496 c 0
 84.5596 360.962 85.5811 362.188 101.119 386.062 c 2
 142.306 449.35 l 2
 150.313 461.654 144.385 475.257 132.902 481.757 c 2
 68.3955 518.275 l 2
 59.6162 523.245 57.8848 535.658 62.4434 544.428 c 2
 88 593.584 l 2
 95.3564 607.734 106.265 610.813 116.564 606.404 c 0
 171.796 582.764 204.672 564.601 263.547 518.792 c 0
 271.92 512.276 289.388 496.607 281.468 484.268 c 2
 247.534 431.394 l 2
 236.426 414.085 220.619 436.052 201.323 439.074 c 0
 186.414 441.41 141.258 404.718 148.891 334.092 c 0
 157.281 256.45 173.679 181.538 208.911 117.749 c 0
 247.123 48.5625 388.966 82.207 452.454 119.843 c 0
EndSplineSet
EndChar

StartChar: afii57677
Encoding: 1501 1501 85
Width: 645
VWidth: 0
GlyphClass: 2
Flags: HW
AnchorPoint: "LowNarrowNiqqud" 322 0 basechar 0
AnchorPoint: "LowWideNiqqud" 322 0 basechar 0
AnchorPoint: "HighNiqqud" 60 0 basechar 0
AnchorPoint: "Dagesh" 322 0 basechar 0
AnchorPoint: "Rafe" 322 0 basechar 0
LayerCount: 2
Fore
SplineSet
138.051 355.193 m 0
 135.586 299.185 133.122 243.175 130.657 187.165 c 0
 126.835 100.297 140.307 97.9639 187.107 96.5293 c 0
 275.483 93.8223 398.461 97.0088 488.396 101.629 c 0
 523.972 103.457 519.719 193.912 519.74 215.629 c 0
 519.79 267.309 519.841 318.989 519.892 370.669 c 0
 519.923 402.379 512.06 479.319 439.658 485.62 c 0
 328.409 495.301 264.529 498.77 183.53 489.923 c 0
 150.065 486.268 142.368 453.323 138.051 355.193 c 0
80.9258 603.012 m 0
 80.8418 607.516 84.0361 610.085 87.6846 609.954 c 0
 93.1777 609.757 98.6709 609.56 104.165 609.362 c 0
 110.369 609.14 131.013 591.32 144.362 591.292 c 0
 208.768 591.155 324.761 589.965 372.753 588.845 c 0
 616.797 583.15 579.584 557.996 581.989 383.7 c 0
 582.823 323.332 583.656 262.965 584.489 202.598 c 0
 586.803 34.9746 588.776 -0.378906 527.922 1.09375 c 0
 470.034 2.49512 447.371 3.51562 386.989 2.4834 c 0
 317.143 1.28906 181.58 -1.40527 122.824 -4.2959 c 0
 59.5391 -7.40918 57.0898 -27.167 61.3193 140.094 c 0
 62.4727 185.688 75.7061 408.899 77.1963 455.548 c 0
 77.8164 474.942 82.0039 545.055 80.9258 603.012 c 0
EndSplineSet
EndChar

StartChar: afii57681
Encoding: 1505 1505 86
Width: 630
VWidth: 0
GlyphClass: 2
Flags: HW
AnchorPoint: "LowNarrowNiqqud" 315 0 basechar 0
AnchorPoint: "LowWideNiqqud" 315 0 basechar 0
AnchorPoint: "HighNiqqud" 60 0 basechar 0
AnchorPoint: "Dagesh" 315 0 basechar 0
AnchorPoint: "Rafe" 315 0 basechar 0
LayerCount: 2
Fore
SplineSet
127.676 451.266 m 2
 139.708 470.387 117.887 485.498 84.8223 491.378 c 0
 67.0732 494.534 58.6934 498.296 60.165 507.708 c 2
 70.708 575.168 l 2
 73.918 595.713 84.9775 595.816 141.823 595.433 c 0
 248.052 594.714 385.659 582.874 477.76 551.509 c 0
 601.938 509.218 565.444 505.374 561.807 389.25 c 0
 554.652 160.876 554.049 92.877 472.148 48.3887 c 0
 406.145 12.5352 226.743 -42.4893 156.067 37.3926 c 0
 102.314 98.1494 78.4248 195.166 70.0791 282.323 c 0
 63.5986 350.001 71.583 362.131 86.7432 386.221 c 2
 127.676 451.266 l 2
358.983 471.663 m 0
 240.779 491.933 137.332 469.664 134.515 334.251 c 0
 132.613 242.843 148.841 167.849 191.049 117.576 c 0
 241.87 57.0439 375.145 82.0342 438.633 119.67 c 0
 467.535 136.803 494.364 182.348 499.191 284.064 c 0
 505.179 410.25 479.064 451.072 358.983 471.663 c 0
EndSplineSet
EndChar

StartChar: afii57685
Encoding: 1509 1509 87
Width: 602
VWidth: 0
GlyphClass: 2
Flags: HW
AnchorPoint: "LowNarrowNiqqud" 301 0 basechar 0
AnchorPoint: "LowWideNiqqud" 301 0 basechar 0
AnchorPoint: "HighNiqqud" 60 0 basechar 0
AnchorPoint: "Dagesh" 301 0 basechar 0
AnchorPoint: "Rafe" 301 0 basechar 0
LayerCount: 2
Fore
SplineSet
237.197 122.247 m 0
 225.612 111.581 222.14 100.084 223.476 83.8643 c 2
 237.643 -88.2363 l 2
 239.599 -111.995 244.424 -155.544 244.424 -155.544 c 1
 243.866 -163.864 242.237 -166.387 241.333 -168.8 c 0
 233.648 -183.021 187.359 -205.012 181.415 -205.551 c 0
 175.482 -206.09 173.209 -195.547 173.12 -191.447 c 0
 174.403 -156.565 174.358 -113.917 172.17 -75.1748 c 2
 154.298 241.213 l 2
 150.406 310.105 146.918 339.705 155.42 354.832 c 2
 193.015 421.717 l 2
 196.322 427.602 196.679 437.521 185.837 445.038 c 0
 148.549 470.895 109.493 495.572 68.0801 517.598 c 1
 59.8428 523.422 57.9902 534.774 62.1279 543.75 c 2
 87.6846 592.907 l 2
 94.6729 607.243 105.949 610.136 116.249 605.728 c 0
 171.479 582.086 204.026 559.548 262.9 513.74 c 0
 271.274 507.225 288.455 491.332 279.595 479.648 c 0
 251.473 442.565 229.361 406.216 211.833 366.023 c 0
 200.074 339.059 202.656 336.761 206.169 294.091 c 2
 214.493 192.978 l 2
 215.953 175.238 226.85 172.127 239.662 184.386 c 0
 374.182 313.084 470.741 410.811 430.561 452.748 c 2
 349.33 537.528 l 2
 342.351 544.812 343.736 557.057 350.433 564.327 c 2
 387.968 605.078 l 2
 398.772 616.809 410.105 616.924 418.892 609.973 c 0
 466.007 572.696 489.161 546.116 533.989 486.491 c 0
 540.364 478.011 546.256 462.24 538.104 450.052 c 0
 474.605 355.094 364.139 239.117 237.197 122.247 c 0
EndSplineSet
EndChar

StartChar: afii57690
Encoding: 1514 1514 88
Width: 704
VWidth: 0
GlyphClass: 2
Flags: HW
AnchorPoint: "LowNarrowNiqqud" 395 0 basechar 0
AnchorPoint: "LowWideNiqqud" 395 0 basechar 0
AnchorPoint: "HighNiqqud" 90 0 basechar 0
AnchorPoint: "Dagesh" 405 -30 basechar 0
AnchorPoint: "Rafe" 337 0 basechar 0
LayerCount: 2
Fore
SplineSet
225.391 388.281 m 0
 225.763 267.316 231.637 141.886 239.009 23.1924 c 0
 239.754 11.1953 235.611 7.37402 230.108 4.48633 c 0
 218.068 -1.83398 172.661 -4.15918 166.705 -4.54004 c 0
 128.197 -7 55.4941 -8.45508 38.4629 -7.63867 c 0
 31.8584 -7.32227 29.0908 -2.50391 30.2617 5.6875 c 2
 42.4287 90.8438 l 2
 42.9043 94.1758 46.7451 98.7041 52.3564 98.6016 c 0
 69.167 98.293 141.896 92.8154 164.094 96.8672 c 0
 172.621 98.4238 175.11 100.67 174.903 111.62 c 2
 168.759 436.707 l 2
 167.729 491.21 108.915 470.88 112.702 493.795 c 2
 131.021 604.657 l 2
 131.756 609.107 134.104 611.664 137.753 611.603 c 2
 150.402 611.39 l 2
 156.604 611.285 177.261 592.989 190.619 592.965 c 0
 255.001 592.847 381.143 591.668 429.153 590.52 c 0
 667.017 584.829 636.274 553.67 638.386 379.362 c 2
 641.764 100.548 l 2
 642.053 76.7031 643.941 37.7061 643.536 33.1895 c 0
 642.792 24.8984 641.408 22.2852 640.17 20.0088 c 0
 632.434 5.79004 585.389 -15.0156 579.438 -15.4248 c 0
 573.519 -15.8311 571.248 -5.25 571.465 -1.14453 c 0
 573.304 33.6973 576.612 76.2412 576.567 115.04 c 2
 576.272 366.323 l 2
 576.246 388.043 568.619 474.257 496.052 478.311 c 0
 410.917 483.067 344.707 486.174 278.342 478.546 c 0
 242.393 474.414 225.198 450.928 225.391 388.281 c 0
EndSplineSet
PairPos2: "kernHorizontalKerning subtable" afii57682.fp dx=-25 dy=0 dh=-25 dv=0 dx=0 dy=0 dh=0 dv=0
PairPos2: "kernHorizontalKerning subtable" afii57682 dx=-25 dy=0 dh=-25 dv=0 dx=0 dy=0 dh=0 dv=0
PairPos2: "kernHorizontalKerning subtable" afii57687 dx=-25 dy=0 dh=-25 dv=0 dx=0 dy=0 dh=0 dv=0
PairPos2: "kernHorizontalKerning subtable" afii57682.fp dx=-25 dy=0 dh=-25 dv=0 dx=0 dy=0 dh=0 dv=0
PairPos2: "kernHorizontalKerning subtable" afii57682 dx=-25 dy=0 dh=-25 dv=0 dx=0 dy=0 dh=0 dv=0
PairPos2: "kernHorizontalKerning subtable" afii57668 dx=-25 dy=0 dh=-25 dv=0 dx=0 dy=0 dh=0 dv=0
PairPos2: "kernHorizontalKerning subtable" afii57667 dx=-25 dy=0 dh=-25 dv=0 dx=0 dy=0 dh=0 dv=0
PairPos2: "kernHorizontalKerning subtable" afii57673 dx=-25 dy=0 dh=-25 dv=0 dx=0 dy=0 dh=0 dv=0
EndChar

StartChar: afii57684
Encoding: 1508 1508 89
Width: 600
VWidth: 0
GlyphClass: 2
Flags: HW
AnchorPoint: "LowNarrowNiqqud" 300 0 basechar 0
AnchorPoint: "LowWideNiqqud" 300 0 basechar 0
AnchorPoint: "HighNiqqud" 60 0 basechar 0
AnchorPoint: "Dagesh" 385 -20 basechar 0
AnchorPoint: "Rafe" 300 0 basechar 0
LayerCount: 2
Fore
SplineSet
128.409 610.921 m 2
 134.609 610.817 151.731 592.557 167.458 592.456 c 0
 276.057 591.759 369.208 579.398 461.463 548.492 c 0
 570.642 511.915 534.136 491.817 535.408 384.233 c 2
 537.543 203.78 l 2
 539.525 36.1533 541.829 0.804688 480.975 2.27734 c 0
 423.087 3.67773 400.424 4.69824 340.043 3.66602 c 0
 270.195 2.47168 185.896 -0.679688 127.119 -3.11328 c 0
 86.0732 -4.81152 57.4463 -7.84082 60.1807 8.66797 c 0
 64.5234 34.8926 70.7334 77.5459 73.209 87.3438 c 0
 76.2178 99.252 83.9297 104.69 98.3965 104.217 c 0
 218.953 100.265 321.434 98.1445 441.449 102.812 c 0
 477.045 104.196 472.795 195.095 472.793 216.812 c 2
 472.78 358.475 l 2
 472.773 426.213 431.518 448.426 342.688 469.677 c 0
 298.34 480.286 260.251 485.638 213.64 486.871 c 0
 189.568 487.508 189.425 487.496 182.241 465.61 c 0
 167.015 419.22 159.87 382.736 212.79 362.513 c 2
 290.725 332.729 l 2
 300.148 329.128 304.302 317.619 301.463 308.151 c 2
 285.55 255.082 l 2
 280.969 239.806 270.755 234.424 259.887 237.146 c 0
 201.711 251.718 155.676 269.817 109.426 296.029 c 0
 100.195 301.261 86.6787 312.66 89.7764 326.992 c 0
 102.81 387.305 111.958 418.327 125.321 458.71 c 0
 127.671 465.812 128.302 484.72 109.14 488.108 c 0
 100.79 489.586 93.1338 493.009 94.4824 502.439 c 2
 109.027 604.189 l 2
 109.665 608.653 112.109 611.195 115.76 611.134 c 2
 128.409 610.921 l 2
EndSplineSet
PairPos2: "kernHorizontalKerning subtable" afii57687 dx=-25 dy=0 dh=-25 dv=0 dx=0 dy=0 dh=0 dv=0
PairPos2: "kernHorizontalKerning subtable" afii57682.fp dx=-25 dy=0 dh=-25 dv=0 dx=0 dy=0 dh=0 dv=0
PairPos2: "kernHorizontalKerning subtable" afii57682 dx=-25 dy=0 dh=-25 dv=0 dx=0 dy=0 dh=0 dv=0
PairPos2: "kernHorizontalKerning subtable" afii57668 dx=-25 dy=0 dh=-25 dv=0 dx=0 dy=0 dh=0 dv=0
PairPos2: "kernHorizontalKerning subtable" afii57667 dx=-25 dy=0 dh=-25 dv=0 dx=0 dy=0 dh=0 dv=0
EndChar

StartChar: afii57675
Encoding: 1499 1499 90
Width: 600
VWidth: 0
GlyphClass: 2
Flags: HW
AnchorPoint: "LowNarrowNiqqud" 293 0 basechar 0
AnchorPoint: "LowWideNiqqud" 293 0 basechar 0
AnchorPoint: "HighNiqqud" 45 0 basechar 0
AnchorPoint: "Dagesh" 293 0 basechar 0
AnchorPoint: "Rafe" 293 0 basechar 0
LayerCount: 2
Fore
SplineSet
534.552 383.254 m 1
 536.686 202.801 l 2
 537.733 35.165 540.973 -0.175781 480.118 1.29688 c 0
 422.23 2.69824 399.567 3.71875 339.186 2.68652 c 0
 269.339 1.49219 170.897 -1.66016 112.12 -4.09277 c 0
 71.0742 -5.79199 42.4473 -8.82031 45.1807 7.6875 c 2
 58.21 86.3633 l 1
 61.2188 98.2725 68.9248 101.198 83.3975 100.926 c 0
 203.829 98.6602 320.577 97.165 440.592 101.832 c 0
 476.188 103.217 471.775 194.116 471.936 215.832 c 2
 471.923 357.495 l 2
 472.539 425.23 430.661 447.446 341.83 468.697 c 0
 271.295 485.571 216.573 488.509 118.282 485.129 c 0
 100.266 484.51 92.1953 492.041 93.625 501.459 c 2
 104.168 570.919 l 2
 107.288 591.479 115.66 591.82 172.505 591.436 c 0
 278.734 590.718 368.351 578.419 460.605 547.512 c 0
 569.784 510.936 535.077 490.845 534.552 383.254 c 1
EndSplineSet
PairPos2: "kernHorizontalKerning subtable" afii57673 dx=-25 dy=0 dh=-25 dv=0 dx=0 dy=0 dh=0 dv=0
EndChar

StartChar: afii57682
Encoding: 1506 1506 91
Width: 701
VWidth: 0
GlyphClass: 2
Flags: HW
AnchorPoint: "LowNarrowNiqqud" 440 0 basechar 0
AnchorPoint: "LowWideNiqqud" 470 0 basechar 0
AnchorPoint: "HighNiqqud" 60 0 basechar 0
AnchorPoint: "Dagesh" 430 30 basechar 0
AnchorPoint: "Rafe" 350 0 basechar 0
LayerCount: 2
Fore
SplineSet
239.867 41.625 m 0
 290.3 60.7871 301.872 62.3105 290.114 124.979 c 2
 253.332 321.033 l 2
 241.757 382.73 220.781 470.243 164.291 483 c 2
 86.5908 500.547 l 2
 76.75 502.77 71.2168 513.824 72.8389 523.574 c 2
 81.9307 578.227 l 2
 84.5479 593.958 93.9678 600.261 105.126 599.256 c 0
 164.962 593.865 219.094 580.262 258.443 561.99 c 0
 268.066 557.521 286.011 549.355 284.868 534.737 c 0
 280.714 481.6 289.21 441.753 303.35 371.021 c 2
 350.565 134.818 l 2
 359.044 92.4033 376.867 88.9873 434.481 122.251 c 0
 509.87 165.776 513.819 180.333 543.396 352.83 c 0
 556.309 428.142 533.025 475.797 500.477 485.634 c 2
 413.681 511.866 l 2
 404.023 514.784 399.195 526.107 401.443 535.732 c 2
 414.042 589.684 l 2
 417.668 605.215 427.476 610.896 438.546 609.173 c 0
 497.909 599.934 561.625 581.146 613.814 554.813 c 0
 634.374 544.439 645.893 534.629 639.212 518.154 c 0
 620.844 472.861 610.512 426.571 605.205 391.637 c 0
 568.018 146.841 567.594 111.047 479.783 53.9697 c 0
 388.272 -5.51172 197.763 -90.1348 71.123 -116.772 c 0
 66.4619 -117.753 58.043 -114.819 60.4121 -100.065 c 2
 73.9199 -15.9355 l 2
 75.291 -7.39258 77.6699 -0.462891 92.0928 2 c 0
 136.3 9.54883 190.813 22.9873 239.867 41.625 c 0
EndSplineSet
PairPos2: "kernHorizontalKerning subtable" afii57668 dx=-25 dy=0 dh=-25 dv=0 dx=0 dy=0 dh=0 dv=0
PairPos2: "kernHorizontalKerning subtable" afii57665 dx=-25 dy=0 dh=-25 dv=0 dx=0 dy=0 dh=0 dv=0
PairPos2: "kernHorizontalKerning subtable" afii57673 dx=-25 dy=0 dh=-25 dv=0 dx=0 dy=0 dh=0 dv=0
Substitution2: "Single Substitution lookup 3 subtable" afii57682.fp
Substitution2: "Single Substitution lookup 1 subtable" uniFB20
EndChar

StartChar: afii57668
Encoding: 1492 1492 92
Width: 685
VWidth: 0
GlyphClass: 2
Flags: HW
AnchorPoint: "LowNarrowNiqqud" 320 0 basechar 0
AnchorPoint: "LowWideNiqqud" 320 0 basechar 0
AnchorPoint: "HighNiqqud" 60 0 basechar 0
AnchorPoint: "Dagesh" 340 -25 basechar 0
AnchorPoint: "Rafe" 342 0 basechar 0
LayerCount: 2
Fore
SplineSet
102.985 279.852 m 2
 103.35 292.296 105.742 298.575 115.114 299.015 c 2
 167.142 301.45 l 2
 174.597 301.799 179.386 295.481 179.406 288.169 c 2
 180.12 34.0117 l 2
 180.155 21.3486 175.485 16.4639 170.578 13.3896 c 0
 148.791 -0.260742 131.428 -9.52637 105.924 -17.207 c 0
 100.11 -18.957 94.3779 -14.3193 94.6963 -3.43262 c 2
 102.985 279.852 l 2
78.2578 608.98 m 0
 78.9756 613.428 81.3652 615.985 85.0166 615.923 c 0
 89.04 615.854 93.0635 615.784 97.0879 615.715 c 0
 106.05 615.561 122.655 597.258 135.994 596.7 c 0
 194.77 594.244 286.244 586.904 356.092 585.71 c 0
 439.812 584.278 550.99 588.738 606.811 590.744 c 0
 619.99 591.218 624.334 584.028 624.373 575.557 c 2
 624.717 500.744 l 2
 624.773 488.745 619.205 490.297 610.561 484.432 c 0
 601.904 478.559 593.248 472.685 584.592 466.812 c 0
 562.459 451.794 553.662 424.607 553.592 380.307 c 2
 553.154 103.4 l 2
 553.117 79.2861 559.727 39.8457 559.324 35.2754 c 0
 558.584 26.873 557.182 24.2227 555.949 21.9316 c 0
 548.223 7.57129 494.586 -13.4971 488.633 -13.9121 c 0
 482.689 -14.3262 480.418 -3.61719 480.633 0.525391 c 0
 482.461 35.7861 487.834 69.6475 487.967 108.9 c 2
 488.842 367.275 l 2
 488.916 388.992 493.094 479.891 457.498 481.275 c 0
 337.482 485.942 205.742 484.447 85.3105 482.182 c 0
 70.8389 481.909 58.6328 487.335 60.123 496.744 c 0
 61.6406 506.322 72.2129 571.568 78.2578 608.98 c 0
EndSplineSet
Substitution2: "Single Substitution lookup 4 subtable" afii57668.fp
EndChar

